<svg xmlns="http://www.w3.org/2000/svg" width="80.753" height="84.213" viewBox="0 0 80.753 84.213"><g transform="translate(-882.349 -503.699)"><path d="M957.732,539.189a.749.749,0,0,1-.714-.977c2.055-6.456-.65-14.373-4.334-18.006-.849-.836-2.505-2.16-4.086-1.635-4.591,1.534-4.429,6.326-4.427,6.374a.752.752,0,0,1-.715.784.728.728,0,0,1-.783-.715c0-.06-.2-5.976,5.45-7.865,1.734-.579,3.726.127,5.613,1.989,4,3.943,6.939,12.531,4.711,19.529A.749.749,0,0,1,957.732,539.189Z"/><path d="M955.833,536.911a.79.79,0,0,1-.228-.035.75.75,0,0,1-.487-.942,13.122,13.122,0,0,0-2.924-12.161c-.547-.54-1.607-1.394-2.578-1.073a4.3,4.3,0,0,0-2.887,4.172.75.75,0,0,1-.732.768.77.77,0,0,1-.768-.733,5.8,5.8,0,0,1,3.9-5.626c1.287-.43,2.747.075,4.115,1.424a14.554,14.554,0,0,1,3.3,13.684A.751.751,0,0,1,955.833,536.911Z"/><path d="M947.1,567.756a16.126,16.126,0,0,1-7.054-1.621,30.461,30.461,0,0,1-10.815-8.588c-7.389-9.7-8.834-20.969-9.082-23.666l-5.076-.991a.75.75,0,0,1-.016-1.469c1.587-.348,5.81-2.638,11.333-6.845,4.734-3.608,8.685-7.354,9.607-9.108a.75.75,0,0,1,1.412.406l-.4,5.155c2.536.956,13.014,5.344,20.393,15.032l.009.01a30.51,30.51,0,0,1,5.409,12.714A16.009,16.009,0,0,1,947.1,567.756Zm-29.234-35.85,3.13.612a.75.75,0,0,1,.606.693c.006.128.83,12.935,8.813,23.416a28.97,28.97,0,0,0,10.28,8.155,14.632,14.632,0,0,0,9.064,1.227,14.525,14.525,0,0,0,11.59-16.956,28.986,28.986,0,0,0-5.139-12.089c-7.983-10.476-20.106-14.671-20.228-14.712a.751.751,0,0,1-.507-.769l.243-3.166a76.124,76.124,0,0,1-17.852,13.589Z"/><path d="M914.718,532.962a1.3,1.3,0,0,1-1.086-.471.769.769,0,0,1-.061-.1.713.713,0,0,1-.1-.194.732.732,0,0,1-.043-.2c-.362-2.6,8.5-9.5,10.319-10.884,9.1-6.933,12.151-7.331,13.1-7.1a.756.756,0,0,1,.288.112.772.772,0,0,1,.183.167.687.687,0,0,1,.085.095c.495.626.059,1.479-.085,1.759-1.048,2-4.985,5.766-10.03,9.612-4.966,3.783-9.757,6.642-11.922,7.116A3.088,3.088,0,0,1,914.718,532.962Zm21.3-17.551c-1.317.259-5.7,2.59-11.363,6.9-5.555,4.231-8.947,7.789-9.624,9.11l.025-.006c1.581-.346,5.8-2.636,11.327-6.843,4.734-3.608,8.685-7.354,9.607-9.108Z"/><path d="M923.729,587.912a.636.636,0,0,1-.107-.008.749.749,0,0,1-.637-.847c.3-2.1-2.13-10.645-4.478-18.905-2.61-9.173-5.308-18.66-5.423-22.878-.23-8.486,7.09-12.513,7.4-12.681.058-.037,9.509-5.845,15.193-11.578a.75.75,0,0,1,1.064,1.056c-5.812,5.864-15.118,11.582-15.511,11.823-.1.057-6.852,3.794-6.647,11.339.109,4.03,2.9,13.848,5.365,22.509,2.611,9.179,4.865,17.106,4.521,19.526A.749.749,0,0,1,923.729,587.912Z"/><path d="M926.645,552.968a.75.75,0,0,1-.278-1.447,60.836,60.836,0,0,0,25.992-19.8.75.75,0,1,1,1.2.9,62.336,62.336,0,0,1-26.633,20.29A.734.734,0,0,1,926.645,552.968Z"/><path d="M936.341,563.886a.75.75,0,0,1-.2-1.474c.154-.042,15.478-4.355,24.127-18.388a.751.751,0,1,1,1.278.788c-8.97,14.55-24.852,19-25.012,19.047A.74.74,0,0,1,936.341,563.886Z"/><path d="M886.753,569.085a.75.75,0,0,1-.637-1.145c2.168-3.5,2.541-9.463,2.937-15.774.7-11.142,1.488-23.77,11.611-30.443,8.329-5.492,14.757-5.64,18.68-4.8a14.164,14.164,0,0,1,6.705,3.276.75.75,0,0,1-1.059,1.063h0c-.342-.338-8.541-8.151-23.5,1.714-9.5,6.262-10.264,18.494-10.94,29.285-.407,6.5-.792,12.647-3.158,16.469A.75.75,0,0,1,886.753,569.085Z"/><path d="M936.215,586.19a.749.749,0,0,1-.731-.586c-.026-.092-.847-2.907-10.623-20.383-10.3-18.423-3.772-25.637-3.489-25.935a.75.75,0,0,1,1.091,1.029c-.031.036-1.516,1.7-1.821,5.438-.289,3.521.435,9.63,5.528,18.735,9.921,17.736,10.719,20.528,10.777,20.788a.75.75,0,0,1-.567.9A.713.713,0,0,1,936.215,586.19Z"/><path d="M903.573,508.79l.6,1.862h1.958l-1.584,1.151.6,1.862-1.584-1.151-1.584,1.151.6-1.862-1.584-1.151h1.971Z"/><path d="M884.345,538.841l.472,1.451h1.526l-1.235.9.472,1.451-1.234-.9-1.235.9.472-1.451-1.234-.9h1.526Z"/><path d="M930.023,503.7l.471,1.451h1.522l-1.234.9.472,1.451-1.234-.9-1.234.9.471-1.451-1.234-.9h1.526Z"/><path d="M941.8,571.059l.472,1.451H943.8l-1.234.9.472,1.451-1.234-.9-1.234.9.471-1.451-1.234-.9h1.526Z"/><path d="M897.154,579.4a.767.767,0,0,1-.28-.053.752.752,0,0,1-.416-.977c2.372-5.9,3.314-12.554,2.967-20.944-.09-2.161-.273-4.37-.45-6.507a87.524,87.524,0,0,1-.443-12.013c.358-6.478,2.859-11.6,7.434-15.22,4.311-3.412,11.479-5.9,17.492-1.682a.75.75,0,1,1-.861,1.228c-5.334-3.743-11.792-1.46-15.7,1.63-4.222,3.343-6.533,8.1-6.866,14.126a86.261,86.261,0,0,0,.44,11.807c.178,2.151.363,4.377.453,6.568.352,8.493-.652,15.548-3.072,21.568A.753.753,0,0,1,897.154,579.4Z"/><path d="M911.25,586.19a.736.736,0,0,1-.174-.02.75.75,0,0,1-.556-.9c.016-.071,1.635-7.181-1.156-18.062-2.712-10.573-4.2-29.34-.463-35.885,3.692-6.462,8.787-4.609,8.84-4.591a.751.751,0,0,1-.531,1.4c-.172-.064-3.979-1.369-7.006,3.931-3.227,5.652-2.32,23.331.613,34.768,2.891,11.272,1.234,18.481,1.162,18.782A.751.751,0,0,1,911.25,586.19Z"/></g></svg>