<svg xmlns="http://www.w3.org/2000/svg" width="83.702" height="69.707" viewBox="0 0 83.702 69.707"><g transform="translate(-592.469 -167.399)"><path d="M653.559,206.25a.735.735,0,0,1-.327-.076.75.75,0,0,1-.348-1,12.723,12.723,0,0,0,1.268-5.5c0-8.623-8.9-15.64-19.85-15.64s-19.85,7.017-19.85,15.641a12.752,12.752,0,0,0,1.266,5.5.75.75,0,0,1-1.35.653,14.249,14.249,0,0,1-1.416-6.149c0-9.453,9.578-17.143,21.35-17.143s21.35,7.69,21.35,17.141a14.233,14.233,0,0,1-1.418,6.154A.751.751,0,0,1,653.559,206.25Z"/><path d="M634.31,232.024c-.107,0-.212,0-.32,0a16.208,16.208,0,0,1-14.82-10.955.75.75,0,0,1,1.421-.482,14.7,14.7,0,0,0,13.436,9.938,14.408,14.408,0,0,0,13.995-9.888.75.75,0,0,1,1.423.475A15.888,15.888,0,0,1,634.31,232.024Z"/><path d="M634.3,237.106c-5.624,0-10.2-4.142-10.2-9.234a.5.5,0,0,1,1,0c0,4.54,4.127,8.234,9.2,8.234s9.206-3.694,9.206-8.234a.5.5,0,0,1,1,0C644.51,232.964,639.932,237.106,634.3,237.106Z"/><path d="M634.3,227.476a.741.741,0,0,1-.219-.033c-.6-.183-5.837-1.874-5.942-5.024a1.952,1.952,0,0,1,.774-1.718c1.419-1.059,4.373-.283,5.387.03,1.017-.313,3.977-1.09,5.4-.029a1.954,1.954,0,0,1,.775,1.716v0c-.117,3.149-5.356,4.839-5.954,5.022A.74.74,0,0,1,634.3,227.476Zm-3.377-5.812a1.965,1.965,0,0,0-1.112.238c-.1.072-.183.178-.173.466.056,1.673,3.261,3.1,4.662,3.57,1.4-.473,4.61-1.9,4.674-3.571a.482.482,0,0,0-.174-.464c-.685-.51-2.949-.107-4.264.327a.747.747,0,0,1-.472,0A11.3,11.3,0,0,0,630.928,221.664Zm8.8.73h0Z"/><path d="M634.3,231.767a.5.5,0,0,1-.5-.5v-4.542a.5.5,0,0,1,1,0v4.542A.5.5,0,0,1,634.3,231.767Z"/><path d="M628.885,223.143a.75.75,0,0,1-.746-.69c-.012-.143-1.18-14.331-3.36-18.9-1.812-3.8-9.075-4.26-10.7-4.316-.393.517-1.361,2.217-.722,5.867a.75.75,0,0,1-1.478.259c-.954-5.453,1.3-7.383,1.4-7.463a.755.755,0,0,1,.477-.171h0c.405,0,9.936.064,12.377,5.177,2.3,4.815,3.453,18.829,3.5,19.423a.75.75,0,0,1-.687.808C628.926,223.142,628.906,223.143,628.885,223.143Z"/><path d="M624.963,204.68a5.711,5.711,0,0,1-3.119-.927,6.809,6.809,0,0,1-2.644-4.236.75.75,0,0,1,1.476-.271,5.286,5.286,0,0,0,2.028,3.279,4.185,4.185,0,0,0,2.645.637l8.4-9.966a.753.753,0,0,1,.574-.267h0a.747.747,0,0,1,.574.268l8.566,10.19a.75.75,0,1,1-1.148.965l-7.993-9.508-8.01,9.509a.756.756,0,0,1-.458.258A5.757,5.757,0,0,1,624.963,204.68Z"/><path d="M639.729,223.143c-.021,0-.041,0-.062,0a.751.751,0,0,1-.687-.808c.048-.594,1.2-14.608,3.5-19.423,2.44-5.113,11.972-5.177,12.376-5.177h0a.75.75,0,0,1,0,1.5c-.089,0-8.989.062-11.023,4.324-2.18,4.567-3.348,18.754-3.359,18.9A.751.751,0,0,1,639.729,223.143Z"/><path d="M643.653,204.679a5.821,5.821,0,0,1-.882-.068.751.751,0,0,1,.232-1.483,4.221,4.221,0,0,0,2.956-.632,5.268,5.268,0,0,0,1.986-3.25.75.75,0,0,1,1.476.271,6.788,6.788,0,0,1-2.6,4.207A5.777,5.777,0,0,1,643.653,204.679Z"/><path d="M656.014,205.986a.533.533,0,0,1-.056,0,.75.75,0,0,1-.693-.8,15.675,15.675,0,0,0-1.336-7.573.75.75,0,0,1,.649-1.057c3.072-.144,5.21-1.037,6.355-2.656a6.7,6.7,0,0,0,.825-5.025c-6.894-1.445-8.512,3.206-8.578,3.41a.75.75,0,0,1-1.429-.458c.021-.064,2.137-6.386,10.8-4.31a.751.751,0,0,1,.543.513c.047.155,1.119,3.825-.939,6.736-1.281,1.811-3.45,2.887-6.457,3.209a17.2,17.2,0,0,1,1.06,7.322A.749.749,0,0,1,656.014,205.986Z"/><path d="M653.557,194.749a.751.751,0,0,1-.7-1.032c1.7-4.2,8.492-5.995,9.277-6.189L668.8,184.7a.75.75,0,1,1,.585,1.381l-6.721,2.848a.786.786,0,0,1-.119.039c-.068.016-6.819,1.659-8.3,5.308A.749.749,0,0,1,653.557,194.749Z"/><path d="M614,198.05h-.036c-3.557-.166-6.084-1.273-7.509-3.288-2.059-2.911-.986-6.581-.939-6.737a.751.751,0,0,1,.543-.512c8.666-2.081,10.782,4.246,10.8,4.31a.75.75,0,0,1-1.429.458h0c-.066-.2-1.678-4.851-8.577-3.41a6.739,6.739,0,0,0,.83,5.034c1.146,1.613,3.282,2.5,6.348,2.647a.75.75,0,0,1-.034,1.5Z"/><path d="M615.052,194.749a.75.75,0,0,1-.7-.469c-1.476-3.647-8.228-5.292-8.3-5.308a.751.751,0,0,1-.2-.081l-6.176-3.585a.75.75,0,1,1,.753-1.3l6.084,3.531c.974.246,7.558,2.05,9.229,6.177a.751.751,0,0,1-.7,1.032Z"/><path d="M613.482,223.794a16.826,16.826,0,0,1-4.621-.681,16.086,16.086,0,0,1-9.028-7.031c-2.267,1.108-4.476,2.339-6.222,3.412a.75.75,0,0,1-1.113-.847,29.454,29.454,0,0,1,2.026-5.138A16.852,16.852,0,0,1,612.77,204.5a13.646,13.646,0,0,1,9.55,6.6,8.264,8.264,0,0,1,.061,7.552C620.592,222.438,617.086,223.794,613.482,223.794Zm-12.287-8.36a14.585,14.585,0,0,0,8.1,6.242c4.247,1.226,9.569.912,11.733-3.66a6.732,6.732,0,0,0-.039-6.226c-1.441-2.811-4.854-5.147-8.494-5.816a15.35,15.35,0,0,0-16.627,8.209,27.965,27.965,0,0,0-1.312,3.01c3.971-2.285,13.214-7.179,16.814-5.472a3.248,3.248,0,0,1,2.119,2.463c.231,1.9-1.74,3.572-1.966,3.756a.75.75,0,0,1-.95-1.161c.407-.334,1.54-1.5,1.427-2.416-.06-.482-.488-.915-1.272-1.287C609.091,212.3,605.183,213.593,601.2,215.434Z"/><path d="M597.818,210.68a.753.753,0,0,1-.713-.515,35.915,35.915,0,0,1-1.336-16.955c1.433-8.832,7.438-14.9,16.064-16.231,7.636-1.182,15.505,1.074,20.533,5.88a.75.75,0,0,1-1.037,1.084c-4.626-4.423-12.187-6.573-19.267-5.482-7.952,1.227-13.489,6.831-14.812,14.99a34.4,34.4,0,0,0,1.28,16.244.751.751,0,0,1-.477.948A.768.768,0,0,1,597.818,210.68Z"/><path d="M613.708,189.792a.734.734,0,0,1-.211-.031.749.749,0,0,1-.51-.93c2.47-8.455-2.148-10.226-2.2-10.243a.75.75,0,1,1,.508-1.411c.246.088,5.988,2.281,3.127,12.075A.75.75,0,0,1,613.708,189.792Z"/><path d="M612.547,201.917a.745.745,0,0,1-.4-.119c-7.025-4.515-15.718-1.242-15.805-1.209a.75.75,0,0,1-.543-1.4c.383-.15,9.479-3.591,17.16,1.347a.75.75,0,0,1-.407,1.38Z"/><path d="M605.43,213.661a.775.775,0,0,1-.2-.026.749.749,0,0,1-.53-.918c.732-2.739-3.1-5.193-3.138-5.217a.75.75,0,0,1,.8-1.27c.2.123,4.807,3.066,3.789,6.874A.752.752,0,0,1,605.43,213.661Z"/><path d="M675.42,219.6a.751.751,0,0,1-.393-.11c-5.163-3.173-14.375-7.718-17.114-6.42-.785.372-1.213.805-1.272,1.286-.114.922,1.019,2.083,1.425,2.417a.75.75,0,0,1-.95,1.161c-.225-.184-2.2-1.854-1.964-3.756a3.245,3.245,0,0,1,2.118-2.463c3.591-1.706,12.841,3.188,16.815,5.473a27.815,27.815,0,0,0-1.311-3,15.349,15.349,0,0,0-16.622-8.215,13.147,13.147,0,0,0-2.59.766.75.75,0,1,1-.571-1.387,14.635,14.635,0,0,1,2.881-.853,16.849,16.849,0,0,1,18.242,9.016,29.305,29.305,0,0,1,2.026,5.132.748.748,0,0,1-.72.958Z"/><path d="M655.153,223.792c-3.607,0-7.11-1.356-8.9-5.135a8.313,8.313,0,0,1-.322-6.7,12.567,12.567,0,0,1,7.059-6.606.75.75,0,1,1,.57,1.387,11.053,11.053,0,0,0-6.23,5.761,6.755,6.755,0,0,0,.279,5.516c2.164,4.572,7.487,4.889,11.748,3.656a14.582,14.582,0,0,0,8.486-6.927.75.75,0,1,1,1.314.723,16.076,16.076,0,0,1-9.37,7.641A16.9,16.9,0,0,1,655.153,223.792Z"/><path d="M670.823,210.685a.775.775,0,0,1-.235-.038.75.75,0,0,1-.477-.947,34.4,34.4,0,0,0,1.28-16.245c-1.325-8.162-6.863-13.767-14.815-14.994-7.079-1.093-14.642,1.059-19.267,5.482a.75.75,0,1,1-1.038-1.084c5.026-4.807,12.892-7.06,20.534-5.88,8.627,1.331,14.633,7.4,16.066,16.235a35.9,35.9,0,0,1-1.335,16.955A.751.751,0,0,1,670.823,210.685Z"/><path d="M654.929,189.792a.751.751,0,0,1-.72-.54c-2.861-9.794,2.88-11.987,3.125-12.075a.75.75,0,0,1,.514,1.409c-.2.075-4.644,1.875-2.2,10.245a.749.749,0,0,1-.509.93A.739.739,0,0,1,654.929,189.792Z"/><path d="M656.095,201.917a.75.75,0,0,1-.407-1.38c7.678-4.937,16.776-1.5,17.16-1.347a.75.75,0,0,1-.543,1.4c-.086-.033-8.779-3.307-15.8,1.209A.743.743,0,0,1,656.095,201.917Z"/><path d="M663.208,213.661a.752.752,0,0,1-.724-.557c-1.018-3.808,3.593-6.751,3.789-6.874a.75.75,0,0,1,.8,1.27c-.039.024-3.869,2.478-3.137,5.217a.75.75,0,0,1-.531.918A.775.775,0,0,1,663.208,213.661Z"/><path d="M622.837,203.542a1.688,1.688,0,1,1,1.687-1.688A1.689,1.689,0,0,1,622.837,203.542Zm0-1.875a.187.187,0,0,0-.187.187c0,.207.374.207.374,0A.187.187,0,0,0,622.837,201.667Z"/><path d="M645.783,203.792a1.688,1.688,0,1,1,1.687-1.688A1.689,1.689,0,0,1,645.783,203.792Zm0-1.875a.187.187,0,0,0-.187.187c0,.207.374.207.374,0A.187.187,0,0,0,645.783,201.917Z"/><path d="M635.33,167.4l.6,1.862h1.958l-1.584,1.151.6,1.862-1.584-1.151-1.584,1.151.6-1.862-1.575-1.151h1.958Z"/><path d="M654.985,232.781l.472,1.451h1.526l-1.234.9.472,1.451-1.234-.9-1.234.9.472-1.451-1.234-.9h1.526Z"/><path d="M613.623,232.781l.472,1.451h1.526l-1.234.9.472,1.451-1.235-.9-1.234.9.472-1.451-1.235-.9h1.526Z"/><path d="M634.318,194.43a.75.75,0,0,1-.75-.75v-10.4a.75.75,0,1,1,1.5,0v10.4A.75.75,0,0,1,634.318,194.43Z"/></g></svg>