<svg xmlns="http://www.w3.org/2000/svg" width="77.133" height="67.518" viewBox="0 0 77.133 67.518"><g transform="translate(-1029.733 -172.839)"><path d="M1079.1,199.343a1.8,1.8,0,1,1,1.8-1.8A1.8,1.8,0,0,1,1079.1,199.343Zm0-2.093a.3.3,0,1,0,.3.3A.3.3,0,0,0,1079.1,197.25Z"/><path d="M1057.49,199.343a1.8,1.8,0,1,1,1.8-1.8A1.8,1.8,0,0,1,1057.49,199.343Zm0-2.093a.3.3,0,1,0,.3.3A.3.3,0,0,0,1057.49,197.25Z"/><path d="M1084.951,235.437a.751.751,0,0,1-.724-.555l-1.746-6.474a11.659,11.659,0,0,1-3.073-3.457c-3.314-2.116-3.217-4-3.194-4.21a.741.741,0,0,1,.826-.665.749.749,0,0,1,.668.795c0,.075.087,1.315,2.647,2.9a.744.744,0,0,1,.254.263,9.7,9.7,0,0,0,2.856,3.206.758.758,0,0,1,.384.473l.849,3.152a33.72,33.72,0,0,0,.331-3.991,10.779,10.779,0,0,0-3.712-3.7.75.75,0,0,1-.364-.584c-.089-1.1-.472-2.866-1.044-3.322a.75.75,0,1,1,.934-1.173c1.088.864,1.455,3.026,1.568,3.992a12.281,12.281,0,0,1,3.988,4.155.75.75,0,0,1,.086.223c.225,1.067-.549,6.641-.792,8.323a.748.748,0,0,1-.7.642Z"/><path d="M1083.119,228.4a.5.5,0,0,1-.22-.948l2.623-1.286a.5.5,0,1,1,.44.9l-2.623,1.286A.492.492,0,0,1,1083.119,228.4Z"/><path d="M1079.955,224.91a.5.5,0,0,1-.367-.839l1.738-1.88a.5.5,0,0,1,.735.679l-1.739,1.88A.5.5,0,0,1,1079.955,224.91Z"/><path d="M1093.044,230.089a.751.751,0,0,1-.6-.3l-3.995-5.383a11.6,11.6,0,0,1-4.125-2.089c-3.855-.756-4.451-2.546-4.507-2.75a.751.751,0,0,1,1.448-.4h0s.5,1.154,3.51,1.705a.739.739,0,0,1,.333.151,9.639,9.639,0,0,0,3.828,1.934.75.75,0,0,1,.532.3l1.945,2.621a32.982,32.982,0,0,0-1.156-3.833,10.766,10.766,0,0,0-4.809-2.081.748.748,0,0,1-.552-.411c-.489-1-1.491-2.5-2.19-2.712a.75.75,0,0,1,.44-1.435c1.329.407,2.462,2.287,2.921,3.145a12.276,12.276,0,0,1,5.233,2.4.749.749,0,0,1,.159.173c.607.911,1.928,6.382,2.317,8.037a.747.747,0,0,1-.729.922Z"/><path d="M1088.861,224.449a.749.749,0,0,1-.553-1.256l1.969-2.157a.75.75,0,0,1,1.108,1.011l-1.97,2.158A.747.747,0,0,1,1088.861,224.449Z"/><path d="M1084.637,222.356a.749.749,0,0,1-.7-1.022l.928-2.386a.751.751,0,0,1,1.4.544l-.929,2.386A.75.75,0,0,1,1084.637,222.356Z"/><path d="M1096.889,224.35a.754.754,0,0,1-.532-.221l-4.734-4.747a11.592,11.592,0,0,1-4.384-1.467c-3.924-.188-4.774-1.872-4.859-2.065a.75.75,0,0,1,1.36-.631c.04.065.729,1.1,3.737,1.205a.744.744,0,0,1,.35.1,9.625,9.625,0,0,0,4.066,1.356.743.743,0,0,1,.571.22l2.306,2.312a33.442,33.442,0,0,0-1.7-3.624,10.781,10.781,0,0,0-5.06-1.362.755.755,0,0,1-.607-.326c-.627-.914-1.835-2.251-2.557-2.361a.75.75,0,0,1,.224-1.483c1.375.209,2.77,1.9,3.347,2.683a12.266,12.266,0,0,1,5.526,1.62.714.714,0,0,1,.184.148c.73.813,2.832,6.034,3.459,7.615a.751.751,0,0,1-.7,1.027Z"/><path d="M1091.938,219.38a.742.742,0,0,1-.419-.128.751.751,0,0,1-.2-1.042l1.636-2.42a.749.749,0,1,1,1.242.839l-1.635,2.421A.748.748,0,0,1,1091.938,219.38Z"/><path d="M1087.455,217.922a.7.7,0,0,1-.169-.019.75.75,0,0,1-.563-.9l.572-2.5a.75.75,0,0,1,1.463.335l-.572,2.495A.751.751,0,0,1,1087.455,217.922Z"/><path d="M1101.147,217.339a.739.739,0,0,1-.378-.1l-5.787-3.388a11.542,11.542,0,0,1-4.612-.306c-3.844.815-5.094-.6-5.225-.762a.75.75,0,0,1,1.156-.955c.054.053.979.879,3.92.215a.752.752,0,0,1,.365.009,9.668,9.668,0,0,0,4.277.279.754.754,0,0,1,.608.068l2.815,1.648a32.8,32.8,0,0,0-2.562-3.067,10.783,10.783,0,0,0-5.241-.031.756.756,0,0,1-.67-.162c-.837-.724-2.345-1.711-3.073-1.635a.742.742,0,0,1-.825-.667.751.751,0,0,1,.667-.825c1.4-.138,3.16,1.137,3.917,1.747a12.285,12.285,0,0,1,5.756.162.748.748,0,0,1,.214.1c.914.6,4.274,5.113,5.283,6.483a.75.75,0,0,1-.6,1.194Z"/><path d="M1095.091,213.793a.75.75,0,0,1-.708-1l.968-2.757a.75.75,0,0,1,1.416.5l-.968,2.757A.751.751,0,0,1,1095.091,213.793Z"/><path d="M1090.385,213.522a.75.75,0,0,1-.75-.726l-.081-2.559a.75.75,0,0,1,1.5-.048l.081,2.56a.751.751,0,0,1-.727.773Z"/><path d="M1051.647,235.437l-.044,0a.749.749,0,0,1-.7-.642c-.243-1.682-1.018-7.256-.792-8.324a.741.741,0,0,1,.086-.222,12.293,12.293,0,0,1,3.989-4.155c.112-.966.479-3.128,1.566-3.992a.75.75,0,1,1,.934,1.173c-.572.455-.954,2.216-1.042,3.322a.751.751,0,0,1-.365.584,10.807,10.807,0,0,0-3.713,3.7,33.734,33.734,0,0,0,.331,3.992l.85-3.153a.757.757,0,0,1,.384-.473,9.682,9.682,0,0,0,2.855-3.206.761.761,0,0,1,.254-.263c2.626-1.63,2.643-2.894,2.643-2.906a.764.764,0,0,1,.7-.776.716.716,0,0,1,.79.649c.022.211.122,2.094-3.19,4.209a11.616,11.616,0,0,1-3.073,3.458l-1.744,6.474A.753.753,0,0,1,1051.647,235.437Z"/><path d="M1053.475,228.4a.489.489,0,0,1-.22-.051l-2.623-1.286a.5.5,0,1,1,.439-.9l2.623,1.286a.5.5,0,0,1-.219.948Z"/><path d="M1056.639,224.91a.5.5,0,0,1-.368-.16l-1.737-1.88a.5.5,0,1,1,.735-.679l1.737,1.88a.5.5,0,0,1-.367.839Z"/><path d="M1043.551,230.085a.747.747,0,0,1-.73-.922c.391-1.655,1.713-7.125,2.317-8.036a.737.737,0,0,1,.16-.174,12.288,12.288,0,0,1,5.233-2.4c.458-.857,1.592-2.734,2.919-3.144a.75.75,0,1,1,.444,1.433c-.7.216-1.7,1.717-2.191,2.713a.75.75,0,0,1-.553.41,10.779,10.779,0,0,0-4.809,2.082,33.29,33.29,0,0,0-1.155,3.832l1.945-2.621a.749.749,0,0,1,.532-.3,9.628,9.628,0,0,0,3.827-1.934.749.749,0,0,1,.333-.151c3.038-.556,3.517-1.726,3.522-1.738a.767.767,0,0,1,.939-.464.735.735,0,0,1,.5.894c-.056.2-.654,1.993-4.507,2.749a11.568,11.568,0,0,1-4.125,2.088l-4,5.384A.748.748,0,0,1,1043.551,230.085Z"/><path d="M1047.732,224.449a.745.745,0,0,1-.553-.244l-1.971-2.158a.75.75,0,1,1,1.107-1.011l1.971,2.157a.75.75,0,0,1-.554,1.256Z"/><path d="M1051.956,222.356a.749.749,0,0,1-.7-.478l-.928-2.386a.751.751,0,0,1,1.4-.544l.927,2.386a.751.751,0,0,1-.427.972A.761.761,0,0,1,1051.956,222.356Z"/><path d="M1039.7,224.35a.751.751,0,0,1-.7-1.027c.627-1.581,2.728-6.8,3.46-7.615a.739.739,0,0,1,.182-.148,12.271,12.271,0,0,1,5.528-1.62c.577-.782,1.972-2.474,3.346-2.683a.75.75,0,0,1,.224,1.483c-.722.11-1.93,1.447-2.556,2.361a.755.755,0,0,1-.607.326,10.772,10.772,0,0,0-5.06,1.362,32.916,32.916,0,0,0-1.7,3.623l2.3-2.311a.748.748,0,0,1,.571-.22,9.56,9.56,0,0,0,4.065-1.356.751.751,0,0,1,.351-.1c3.09-.109,3.735-1.2,3.741-1.208a.767.767,0,0,1,1-.322.734.734,0,0,1,.361.956c-.085.194-.937,1.877-4.861,2.065a11.586,11.586,0,0,1-4.384,1.467l-4.734,4.747A.751.751,0,0,1,1039.7,224.35Z"/><path d="M1044.658,219.38a.747.747,0,0,1-.622-.33l-1.636-2.421a.75.75,0,0,1,1.243-.839l1.635,2.42a.749.749,0,0,1-.62,1.17Z"/><path d="M1049.139,217.922a.751.751,0,0,1-.731-.582l-.571-2.495a.75.75,0,1,1,1.463-.335l.571,2.5a.749.749,0,0,1-.564.9A.693.693,0,0,1,1049.139,217.922Z"/><path d="M1035.451,217.339a.75.75,0,0,1-.6-1.194c1.007-1.37,4.368-5.887,5.282-6.483a.734.734,0,0,1,.214-.1,12.259,12.259,0,0,1,5.756-.162c.756-.61,2.515-1.887,3.918-1.747a.751.751,0,0,1,.667.825.743.743,0,0,1-.826.667c-.743-.079-2.237.911-3.074,1.635a.75.75,0,0,1-.67.162,10.779,10.779,0,0,0-5.24.031,32.641,32.641,0,0,0-2.562,3.067l2.815-1.648a.743.743,0,0,1,.607-.068,9.648,9.648,0,0,0,4.279-.279.752.752,0,0,1,.365-.009c3.018.68,3.914-.208,3.923-.217a.765.765,0,0,1,1.046-.059.735.735,0,0,1,.107,1.016c-.132.166-1.381,1.576-5.225.762a11.547,11.547,0,0,1-4.614.306l-5.785,3.388A.74.74,0,0,1,1035.451,217.339Z"/><path d="M1041.5,213.793a.749.749,0,0,1-.708-.5l-.967-2.757a.75.75,0,1,1,1.416-.5l.967,2.756a.75.75,0,0,1-.708,1Z"/><path d="M1046.21,213.522h-.023a.75.75,0,0,1-.727-.773l.08-2.559a.762.762,0,0,1,.773-.726.75.75,0,0,1,.727.773l-.08,2.559A.751.751,0,0,1,1046.21,213.522Z"/><path d="M1088.121,203.193a.749.749,0,0,1-.188-1.475c3.147-.822,2.826-5.738,2.822-5.787a.748.748,0,0,1,.1-.436c1.528-2.582,2.09-4.867,1.627-6.606a3.612,3.612,0,0,0-1.429-2.116.75.75,0,0,1-.377-.719c.333-3.711-.453-6.609-2.339-8.613a10.816,10.816,0,0,0-6.464-3,39.554,39.554,0,0,1,3.3,8.922.75.75,0,0,1-1.08.838l-4.081-2.16c.6,3.534,4.737,5.783,4.784,5.808a.754.754,0,0,1,.389.775c-.848,5.584,2.613,7.173,2.648,7.189a.749.749,0,0,1,.037,1.355c-2.2,1.116-1.889,2.772-1.886,2.789a.749.749,0,1,1-1.468.3,3.965,3.965,0,0,1,1.635-3.77c-1.233-1.016-3.016-3.266-2.517-7.579-1.407-.867-5.5-3.783-5.178-8.2a.752.752,0,0,1,.385-.6.745.745,0,0,1,.714-.006l3.718,1.968c-.647-2.257-1.943-6.232-3.475-7.986a.75.75,0,0,1,.541-1.243c.229,0,5.6-.134,9.082,3.562,2.123,2.251,3.058,5.4,2.784,9.358a5.284,5.284,0,0,1,1.728,2.742c.564,2.121,0,4.663-1.671,7.56.036,1.169-.049,6.086-3.951,7.106A.735.735,0,0,1,1088.121,203.193Z"/><path d="M1084.448,189.261a.75.75,0,0,1-.047-1.5c.042,0,4.292-.3,6.542-2.214a.751.751,0,0,1,.973,1.143c-2.634,2.24-7.225,2.556-7.419,2.568Z"/><path d="M1088.281,197.284c-.272,0-.545-.013-.817-.037a.75.75,0,1,1,.139-1.494,7.485,7.485,0,0,0,3.607-.566.75.75,0,0,1,.588,1.379A8.975,8.975,0,0,1,1088.281,197.284Z"/><path d="M1048.472,203.193a.735.735,0,0,1-.191-.024c-3.9-1.02-3.986-5.937-3.95-7.106-1.673-2.9-2.235-5.44-1.671-7.56a5.291,5.291,0,0,1,1.727-2.742c-.275-3.96.661-7.107,2.784-9.357,3.487-3.7,8.858-3.569,9.084-3.563a.75.75,0,0,1,.541,1.243c-1.533,1.754-2.829,5.729-3.476,7.986l3.718-1.968a.745.745,0,0,1,.714.006.752.752,0,0,1,.385.6c.321,4.414-3.77,7.33-5.177,8.2.5,4.313-1.285,6.563-2.519,7.579a3.967,3.967,0,0,1,1.636,3.77.75.75,0,0,1-1.471-.292c.015-.089.259-1.709-1.882-2.8a.749.749,0,0,1,.037-1.355c.137-.063,3.486-1.661,2.648-7.189a.752.752,0,0,1,.389-.775c.047-.025,4.182-2.274,4.784-5.808l-4.081,2.16a.75.75,0,0,1-1.08-.838,39.43,39.43,0,0,1,3.3-8.922,10.813,10.813,0,0,0-6.465,3c-1.886,2.005-2.672,4.9-2.339,8.613a.749.749,0,0,1-.377.718c-.143.086-3.627,2.255.2,8.723a.753.753,0,0,1,.1.435c0,.05-.314,4.969,2.821,5.788a.75.75,0,0,1-.188,1.475Z"/><path d="M1052.151,189.261h-.048c-.2-.012-4.787-.328-7.42-2.568a.75.75,0,0,1,.97-1.143c2.252,1.915,6.5,2.211,6.545,2.214a.75.75,0,0,1-.047,1.5Z"/><path d="M1048.319,197.284a8.983,8.983,0,0,1-3.518-.718.75.75,0,1,1,.588-1.379,7.483,7.483,0,0,0,3.608.565.759.759,0,0,1,.816.679.75.75,0,0,1-.677.816C1048.863,197.271,1048.591,197.284,1048.319,197.284Z"/><path d="M1068.878,226.669a12.425,12.425,0,0,1-5.6-1.335,29.65,29.65,0,0,1-15.966-18.662,5.87,5.87,0,0,1,3.908-7.24h0a57.246,57.246,0,0,1,34.22-.042,5.85,5.85,0,0,1,3.791,7.359c-1.767,5.353-6.12,14.875-15.565,18.964A12.47,12.47,0,0,1,1068.878,226.669Zm-17.213-25.806a4.377,4.377,0,0,0-2.914,5.4,28.164,28.164,0,0,0,15.179,17.724,10.938,10.938,0,0,0,9.148.348c8.9-3.852,13.038-12.939,14.714-18.013a4.351,4.351,0,0,0-2.806-5.5,55.748,55.748,0,0,0-33.321.042Z"/><path d="M1068.3,173.178l.6,1.862h1.958l-1.584,1.151.6,1.862-1.584-1.151-1.584,1.151.6-1.862-1.584-1.151h1.958Z"/><path d="M1068.3,235.482l.6,1.862h1.958l-1.584,1.151.6,1.862-1.584-1.151-1.584,1.151.6-1.862-1.584-1.151h1.958Z"/><path d="M1031.728,202.235l.472,1.451h1.526l-1.234.9.472,1.451-1.234-.9-1.234.9.471-1.451-1.234-.9h1.526Z"/><path d="M1104.866,202.235l.472,1.451h1.528l-1.234.9.471,1.451-1.234-.9-1.234.9.472-1.451-1.234-.9h1.526Z"/><path d="M1083.573,217.245a.751.751,0,0,1-.392-.112l-15.278-9.416a.75.75,0,0,1-.356-.638v-9.531a.75.75,0,0,1,1.5,0v9.112l14.921,9.2a.75.75,0,0,1-.4,1.389Z"/><path d="M1053,216.875a.75.75,0,0,1-.383-1.4l15.3-9.046a.75.75,0,0,1,.764,1.291l-15.3,9.046A.744.744,0,0,1,1053,216.875Z"/></g></svg>