<svg xmlns="http://www.w3.org/2000/svg" width="98.256" height="91.472" viewBox="0 0 98.256 91.472"><g transform="translate(-730.351 -495.693)"><path d="M779.427,572.415c-.1,0-.206,0-.311,0a15.516,15.516,0,0,1-14.188-10.483l-.005-.016-4.6-14.6a13.642,13.642,0,0,1-1.332-5.838c0-9.048,9.163-16.409,20.426-16.409s20.426,7.361,20.426,16.408a13.641,13.641,0,0,1-1.33,5.844l-4.594,14.634A15.214,15.214,0,0,1,779.427,572.415Zm-13.076-10.961a14.006,14.006,0,0,0,12.8,9.458c.094,0,.188,0,.281,0a13.712,13.712,0,0,0,13.056-9.42l4.607-14.673a.635.635,0,0,1,.041-.1,12.135,12.135,0,0,0,1.2-5.241c0-8.22-8.49-14.908-18.926-14.908s-18.926,6.688-18.926,14.908a12.138,12.138,0,0,0,1.206,5.236.662.662,0,0,1,.04.1Z"/><path d="M779.417,568.072a.714.714,0,0,1-.219-.033c-.573-.175-5.6-1.8-5.7-4.829a1.9,1.9,0,0,1,.755-1.669c1.36-1.02,4.184-.282,5.165.021.983-.3,3.815-1.041,5.177-.02a1.9,1.9,0,0,1,.754,1.668v0c-.117,3.029-5.139,4.65-5.711,4.825A.713.713,0,0,1,779.417,568.072Zm-3.226-5.552a1.845,1.845,0,0,0-1.043.223c-.056.042-.161.121-.151.416.052,1.573,3.082,2.922,4.42,3.375,1.337-.453,4.368-1.8,4.432-3.377.008-.293-.1-.372-.153-.414-.645-.481-2.795-.1-4.043.318a.761.761,0,0,1-.472,0A10.752,10.752,0,0,0,776.191,562.52Zm8.407.665h0Z"/><path d="M774.246,563.935a.75.75,0,0,1-.747-.69c-.011-.137-1.126-13.685-3.205-18.037-1.934-4.049-10.411-4.11-10.5-4.11a.75.75,0,0,1,0-1.5h0c.387,0,9.508.064,11.847,4.964,2.2,4.6,3.3,17.995,3.347,18.562a.749.749,0,0,1-.686.808C774.287,563.934,774.267,563.935,774.246,563.935Z"/><path d="M770.494,546.3a5.49,5.49,0,0,1-3-.891,6.542,6.542,0,0,1-2.539-4.068.75.75,0,0,1,1.475-.272,5.022,5.022,0,0,0,1.924,3.112,3.957,3.957,0,0,0,2.507.6l8-8.759a.749.749,0,0,1,.554-.245h0a.751.751,0,0,1,.554.245l8.2,8.963a.75.75,0,1,1-1.108,1.012l-7.646-8.358-7.633,8.358a.746.746,0,0,1-.437.235A5.594,5.594,0,0,1,770.494,546.3Z"/><path d="M784.6,563.935c-.021,0-.041,0-.062,0a.748.748,0,0,1-.686-.808c.045-.567,1.149-13.962,3.346-18.562,2.34-4.9,11.461-4.964,11.848-4.964h0a.75.75,0,0,1,0,1.5c-.085,0-8.563.061-10.5,4.11-2.079,4.352-3.2,17.9-3.205,18.037A.752.752,0,0,1,784.6,563.935Z"/><path d="M788.348,546.3a5.509,5.509,0,0,1-.849-.067.75.75,0,0,1,.232-1.482,3.992,3.992,0,0,0,2.8-.6,5,5,0,0,0,1.884-3.082.75.75,0,0,1,1.475.272,6.518,6.518,0,0,1-2.5,4.039A5.555,5.555,0,0,1,788.348,546.3Z"/><path d="M780.736,584.134a.743.743,0,0,1-.725-.568l-.561-2.329c-.029.085-.059.17-.091.255a.75.75,0,0,1-1.454-.239h0c-.005,0-.246-1.243-3.06-4.192a26.039,26.039,0,0,1-5.886-8.963.75.75,0,1,1,1.4-.549,24.565,24.565,0,0,0,5.562,8.463,23.2,23.2,0,0,1,2.542,3.073,11.115,11.115,0,0,0,.157-1.435.75.75,0,0,1,1.479-.142l.708,2.939a16.4,16.4,0,0,1,3.437-4.323,18.166,18.166,0,0,0,5.035-9.2.75.75,0,0,1,1.467.31,19.662,19.662,0,0,1-5.462,9.972c-3.922,3.691-3.8,6.093-3.793,6.116a.756.756,0,0,1-.632.8A.694.694,0,0,1,780.736,584.134Z"/><path d="M799.084,543.27a.75.75,0,0,1-.246-1.458c.027-.01,2.762-.965,8.245-3.292,3.821-1.622,3.558-8.146,3.228-11.1-1.553,1.449-4.6,3.875-8.13,4.494-4.09.718-4.492,2.465-4.494,2.482a.75.75,0,1,1-1.488-.189c.037-.289.511-2.857,5.722-3.77,4.495-.789,8.319-5.071,8.357-5.114a.75.75,0,0,1,1.3.355c.091.474,2.158,11.644-3.908,14.217-5.538,2.35-8.228,3.289-8.339,3.329A.779.779,0,0,1,799.084,543.27Z"/><path d="M798.875,539.717a.748.748,0,0,1-.736-.615c-.007-.037-.617-3.678,4.158-4.847,3.125-.765,6.748-6.6,7.88-8.777a.75.75,0,1,1,1.332.69c-.179.346-4.431,8.461-8.855,9.544-3.418.837-3.057,3.027-3.041,3.12a.748.748,0,0,1-.6.872A.693.693,0,0,1,798.875,539.717Z"/><path d="M759.752,543.27a.779.779,0,0,1-.246-.041c-.111-.04-2.8-.979-8.339-3.329-6.066-2.573-4-13.743-3.908-14.217a.75.75,0,0,1,1.3-.355c.038.043,3.862,4.325,8.357,5.114,5.212.913,5.686,3.481,5.723,3.77a.75.75,0,0,1-1.486.21c-.016-.073-.462-1.795-4.5-2.5-3.532-.619-6.577-3.045-8.13-4.494-.33,2.949-.593,9.473,3.228,11.1,5.483,2.327,8.218,3.282,8.245,3.292a.75.75,0,0,1-.246,1.458Z"/><path d="M759.967,539.717a.693.693,0,0,1-.136-.013.75.75,0,0,1-.6-.866c.038-.242.262-2.317-3.04-3.126-4.423-1.083-8.675-9.2-8.854-9.544a.75.75,0,1,1,1.332-.69c1.132,2.182,4.755,8.012,7.88,8.777,4.774,1.169,4.165,4.81,4.158,4.847A.749.749,0,0,1,759.967,539.717Z"/><path d="M799.095,532.842l-.048,0a.75.75,0,0,1-.7-.8c.011-.176,1.244-17.56,13.77-18.24,7.471-.4,11.843,2.409,14.176,4.783a26.9,26.9,0,0,0-2.854-6.372c-3.9-6.223-9.706-8.919-17.272-8.013-18.207,2.185-21.137,22-21.164,22.2a.75.75,0,1,1-1.486-.2c.028-.211,3.1-21.16,22.471-23.485,19.534-2.336,22.586,18.941,22.614,19.157a.75.75,0,0,1-1.425.411c-.144-.308-3.683-7.6-14.978-6.978-4.655.253-8.143,3.118-10.367,8.516a29.728,29.728,0,0,0-1.988,8.32A.75.75,0,0,1,799.095,532.842Z"/><path d="M816.054,515.41a.769.769,0,0,1-.243-.04.751.751,0,0,1-.467-.953,8.576,8.576,0,0,0-3.937-10.276.751.751,0,0,1,.731-1.311,10.079,10.079,0,0,1,4.626,12.073A.752.752,0,0,1,816.054,515.41Z"/><path d="M805.849,517.641a.749.749,0,0,1-.747-.7c-.438-6.665-8.345-9.758-8.425-9.789a.75.75,0,0,1,.533-1.4c.362.138,8.888,3.459,9.388,11.094a.75.75,0,0,1-.7.8Z"/><path d="M800.32,526.575a.75.75,0,0,1-.664-.4c-3.217-6.069-13.338-6.072-13.385-6.056h-.005a.75.75,0,0,1-.006-1.5c.432,0,11.08-.017,14.722,6.853a.749.749,0,0,1-.662,1.1Z"/><path d="M759.865,532.842a.75.75,0,0,1-.747-.7,29.729,29.729,0,0,0-1.99-8.32c-2.225-5.4-5.713-8.263-10.368-8.516-11.3-.636-14.835,6.67-14.979,6.98a.75.75,0,0,1-1.424-.413c.028-.216,3.1-21.5,22.613-19.157,19.37,2.325,22.444,23.274,22.472,23.485a.75.75,0,1,1-1.486.2c-.027-.2-2.957-20.013-21.165-22.2-7.558-.908-13.367,1.789-17.271,8.013a26.869,26.869,0,0,0-2.855,6.373c2.332-2.374,6.71-5.187,14.177-4.784,12.526.68,13.762,18.064,13.772,18.24a.748.748,0,0,1-.7.8Z"/><path d="M742.9,515.41a.752.752,0,0,1-.71-.507,10.079,10.079,0,0,1,4.626-12.073.751.751,0,1,1,.731,1.311,8.576,8.576,0,0,0-3.937,10.276.751.751,0,0,1-.466.953A.771.771,0,0,1,742.9,515.41Z"/><path d="M753.1,517.641l-.05,0a.749.749,0,0,1-.7-.8c.5-7.635,9.025-10.956,9.387-11.094a.75.75,0,0,1,.533,1.4c-.08.031-7.987,3.124-8.424,9.789A.751.751,0,0,1,753.1,517.641Z"/><path d="M758.629,526.575a.749.749,0,0,1-.662-1.1c3.642-6.869,14.283-6.865,14.721-6.853a.75.75,0,0,1-.005,1.5h-.013c-.307,0-10.2.064-13.377,6.056A.75.75,0,0,1,758.629,526.575Z"/><circle cx="1.034" cy="1.034" r="1.034" transform="translate(767.429 542.549)"/><circle cx="1.034" cy="1.034" r="1.034" transform="translate(789.349 542.549)"/><path d="M779.418,537.276a.75.75,0,0,1-.75-.75V525.837a.75.75,0,0,1,1.5,0v10.689A.75.75,0,0,1,779.418,537.276Z"/><path d="M779.476,506.135l.6,1.862h1.958l-1.584,1.151.6,1.862-1.584-1.151-1.584,1.151.6-1.862L776.9,508h1.958Z"/><path d="M800.613,569.232l.6,1.862h1.958l-1.584,1.151.605,1.862-1.584-1.151-1.584,1.151.6-1.862-1.584-1.151H800Z"/><path d="M814.743,545.2l.472,1.451h1.528l-1.234.9.472,1.451-1.234-.9-1.234.9.471-1.451-1.234-.9h1.526Z"/><path d="M758.34,569.232l-.6,1.862h-1.958l1.584,1.151-.6,1.862,1.584-1.151,1.584,1.151-.6-1.862,1.584-1.151H758.96Z"/><path d="M744.209,545.2l-.472,1.451h-1.528l1.235.9L742.972,549l1.234-.9,1.235.9-.472-1.451,1.234-.9h-1.526Z"/><circle cx="45.736" cy="45.736" r="45.736" transform="translate(733.74 495.693)" fill="none"/><path d="M779.062,571.809a.75.75,0,0,1-.75-.75v-4.2a.75.75,0,0,1,1.5,0v4.2A.75.75,0,0,1,779.062,571.809Z"/></g></svg>