<svg xmlns="http://www.w3.org/2000/svg" width="80.921" height="72.746" viewBox="0 0 80.921 72.746"><g transform="translate(-594.121 -336.029)"><path d="M634.587,392.271c-.1,0-.2,0-.3,0a15.042,15.042,0,0,1-13.754-10.163l-4.456-14.134a13.238,13.238,0,0,1-1.29-5.659,12.892,12.892,0,0,1,.2-2.274.75.75,0,1,1,1.476.263,11.545,11.545,0,0,0-.177,2.01,11.724,11.724,0,0,0,1.165,5.057.81.81,0,0,1,.04.1l4.466,14.17a13.528,13.528,0,0,0,12.365,9.129,13.265,13.265,0,0,0,12.881-9.1l4.459-14.2a.6.6,0,0,1,.041-.1,11.736,11.736,0,0,0,1.164-5.06c0-.3-.011-.6-.035-.9a.75.75,0,0,1,1.5-.119c.026.336.039.676.039,1.017a13.239,13.239,0,0,1-1.29,5.662l-4.447,14.159A14.751,14.751,0,0,1,634.587,392.271Z"/><path d="M634.581,397.2c-5.361,0-9.722-3.958-9.722-8.823a.75.75,0,0,1,1.5,0c0,4.038,3.688,7.323,8.222,7.323s8.222-3.285,8.222-7.323a.75.75,0,0,1,1.5,0C644.3,393.246,639.942,397.2,634.581,397.2Z"/><path d="M634.579,388.068a.756.756,0,0,1-.183-.022c-1.082-.274-6.483-1.785-6.6-4.7a1.807,1.807,0,0,1,.505-1.38,3.677,3.677,0,0,1,2.783-.767c2.32.067,4.669.066,6.987,0a3.682,3.682,0,0,1,2.794.763,1.81,1.81,0,0,1,.511,1.383v0c-.132,2.908-5.531,4.423-6.611,4.7A.727.727,0,0,1,634.579,388.068Zm-3.728-5.374c-1.078,0-1.4.243-1.479.321a.3.3,0,0,0-.078.265c.053,1.308,3.06,2.669,5.285,3.263,2.225-.6,5.236-1.961,5.3-3.262a.305.305,0,0,0-.08-.266c-.082-.083-.441-.35-1.685-.318-2.344.067-4.722.067-7.069,0Zm9.775.619h0Z"/><path d="M634.581,392.268a.75.75,0,0,1-.75-.75v-4.2a.75.75,0,0,1,1.5,0v4.2A.75.75,0,0,1,634.581,392.268Z"/><path d="M628.541,384.063a.751.751,0,0,1-.746-.678c-.012-.131-1.313-13.214-3.723-17.412-1.052-1.827-4.116-3.155-8.626-3.739a.75.75,0,1,1,.192-1.487c3.527.456,8.079,1.6,9.734,4.479,2.571,4.476,3.863,17.463,3.917,18.014a.75.75,0,0,1-.674.819A.618.618,0,0,1,628.541,384.063Z"/><path d="M640.629,384.063a.613.613,0,0,1-.074,0,.75.75,0,0,1-.674-.819c.054-.551,1.346-13.539,3.921-18.014,1.655-2.877,6.2-4.023,9.725-4.477a.75.75,0,1,1,.192,1.487c-4.505.582-7.565,1.909-8.617,3.738-2.415,4.2-3.715,17.28-3.727,17.411A.751.751,0,0,1,640.629,384.063Z"/><path d="M635.676,408.775c-.032,0-.064,0-.1-.005-.209-.03-5.124-.756-5.993-4.667a5.7,5.7,0,0,0-.311-.973,6.416,6.416,0,0,0-6.077-3.782c-4.436-.027-7.9-1.752-9.751-5a13.848,13.848,0,0,1-1.946-6.241c-.194-1.947-.311-3.123-3.329-5.271-6.511-4.634-9.013-9.54-6.864-13.461,1.308-2.387,1.329-2.965,1.448-6.17.055-1.5.132-3.556.377-6.583.534-6.588,3.5-8.252,6.641-10.015a18.479,18.479,0,0,0,4.924-3.59c4.93-5.324,11.251-7.513,19.883-6.887,8.633-.62,14.95,1.564,19.883,6.887a18.5,18.5,0,0,0,4.924,3.591c3.141,1.763,6.107,3.428,6.641,10.014.245,3.026.321,5.081.377,6.582.118,3.206.14,3.784,1.448,6.171,2.151,3.925-.351,8.833-6.865,13.466-3.018,2.146-3.136,3.322-3.329,5.269a13.856,13.856,0,0,1-1.947,6.241c-2.265,3.961-6.984,4.772-10.541,4.767a4.31,4.31,0,0,0-3.968,2.858,5.393,5.393,0,0,1-2.481,2.874c-2.675,1.441-2.336,2.906-2.32,2.967a.767.767,0,0,1-.165.7A.759.759,0,0,1,635.676,408.775Zm-12.259-10.931a7.931,7.931,0,0,1,7.235,4.687,7.371,7.371,0,0,1,.4,1.245c.457,2.059,2.643,2.961,3.88,3.312.159-.954.824-2.339,3.079-3.554a3.887,3.887,0,0,0,1.786-2.071,5.807,5.807,0,0,1,5.363-3.842c3.169.017,7.346-.678,9.253-4.011a12.4,12.4,0,0,0,1.756-5.645c.2-2.04.378-3.8,3.953-6.344,5.737-4.08,8.137-8.388,6.419-11.522h0c-1.479-2.7-1.511-3.575-1.632-6.837-.055-1.487-.131-3.523-.373-6.516-.47-5.79-2.857-7.13-5.88-8.828a19.945,19.945,0,0,1-5.29-3.879c-4.673-5.041-10.451-7.015-18.728-6.406a.676.676,0,0,1-.11,0c-8.17-.6-14.121,1.432-18.728,6.406a19.95,19.95,0,0,1-5.29,3.879c-3.022,1.7-5.41,3.037-5.88,8.828-.242,2.994-.318,5.03-.373,6.517-.121,3.261-.153,4.138-1.632,6.836-1.716,3.13.684,7.437,6.419,11.519,3.573,2.543,3.749,4.3,3.952,6.344a12.381,12.381,0,0,0,1.755,5.644c2.017,3.531,5.722,4.272,8.422,4.242C623.254,397.845,623.336,397.844,623.417,397.844Z"/><path d="M615.733,360.921a.749.749,0,0,1-.672-1.08c2.48-5.063,5.624-7.953,9.345-8.59,5.676-.967,10.5,3.687,10.7,3.885a.75.75,0,0,1-1.05,1.071c-.044-.043-4.487-4.325-9.405-3.476-3.216.554-5.989,3.168-8.244,7.77A.748.748,0,0,1,615.733,360.921Z"/><path d="M656.294,360.046a.733.733,0,0,1-.272-.051.75.75,0,0,1-.461-.54,11.931,11.931,0,0,0-6.016-7.991.749.749,0,0,1-.316-.993,9.692,9.692,0,0,1,10.737-5.185.75.75,0,0,1,.48.339c.05.082,4.914,8.187-3.719,14.284A.749.749,0,0,1,656.294,360.046Zm-5.383-9.527a13.425,13.425,0,0,1,5.823,7.5c5.6-4.609,3.266-10.038,2.59-11.331A8.2,8.2,0,0,0,650.911,350.519Z"/><path d="M655.51,357.579a.75.75,0,0,1-.4-1.388c4.42-2.738,3.952-10.043,3.947-10.116a.75.75,0,0,1,1.5-.109c.025.337.542,8.282-4.653,11.5A.747.747,0,0,1,655.51,357.579Z"/><path d="M612.868,360.046a.744.744,0,0,1-.432-.137c-8.634-6.1-3.769-14.2-3.719-14.284a.753.753,0,0,1,.48-.339,9.7,9.7,0,0,1,10.737,5.185.749.749,0,0,1-.317.992,11.942,11.942,0,0,0-6.016,7.993.748.748,0,0,1-.461.539A.733.733,0,0,1,612.868,360.046Zm-3.029-13.357c-.676,1.293-3.014,6.722,2.589,11.331a13.432,13.432,0,0,1,5.823-7.5A8.194,8.194,0,0,0,609.839,346.689Z"/><path d="M613.655,357.579a.751.751,0,0,1-.4-.113c-5.2-3.218-4.677-11.164-4.653-11.5a.741.741,0,0,1,.8-.693.751.751,0,0,1,.694.8c-.005.073-.474,7.378,3.947,10.116a.75.75,0,0,1-.395,1.388Z"/><path d="M644.021,368.376a3.851,3.851,0,0,1-.431-.022.758.758,0,0,1-.317-.121l-8.7-5.845-8.705,5.477a.765.765,0,0,1-.3.109,4.659,4.659,0,0,1-3.32-.964,5.464,5.464,0,0,1-1.792-4.078.75.75,0,0,1,1.5-.1,4.074,4.074,0,0,0,1.232,3,3.12,3.12,0,0,0,2.042.657l8.959-5.637a.751.751,0,0,1,.817.012l8.94,6.005a3.124,3.124,0,0,0,2.031-.657,4.077,4.077,0,0,0,1.232-3,.75.75,0,0,1,1.5.1,5.471,5.471,0,0,1-1.792,4.078A4.6,4.6,0,0,1,644.021,368.376Z"/><path d="M643.554,399.4a.75.75,0,0,1-.384-1.394c.943-.562,3.359-2.374,3.208-3.993a.75.75,0,1,1,1.494-.139c.264,2.845-3.506,5.166-3.936,5.422A.757.757,0,0,1,643.554,399.4Z"/><path d="M627.437,400.582a.749.749,0,0,1-.567-.258,22.957,22.957,0,0,1-3.09-4.56.75.75,0,1,1,1.334-.686A21.512,21.512,0,0,0,628,399.34a.751.751,0,0,1-.565,1.242Z"/><path d="M612.165,388.068a.75.75,0,0,1-.735-.6,18.906,18.906,0,0,1,0-7.4.75.75,0,1,1,1.471.293,17.424,17.424,0,0,0,0,6.818.749.749,0,0,1-.589.882A.813.813,0,0,1,612.165,388.068Z"/><path d="M657.116,387.321l-.054,0a.749.749,0,0,1-.7-.8c.089-1.241.156-4.825-.585-6.493a.75.75,0,0,1,1.371-.609c1.045,2.352.724,7.012.71,7.209A.749.749,0,0,1,657.116,387.321Z"/><path d="M666.208,368.377a.751.751,0,0,1-.583-.276,14.274,14.274,0,0,1-2.637-5.006.75.75,0,0,1,1.438-.424,12.774,12.774,0,0,0,2.363,4.483.749.749,0,0,1-.581,1.223Z"/><path d="M602.959,368.377a.749.749,0,0,1-.647-1.128c.019-.032,1.85-3.165,2.563-4.685a.75.75,0,0,1,1.358.638c-.742,1.581-2.549,4.673-2.626,4.8A.747.747,0,0,1,602.959,368.377Z"/><path d="M634.586,362.244a.75.75,0,0,1-.75-.749l-.006-5.823a.755.755,0,0,1,.267-.575c.231-.193,5.7-4.717,11.509-3.258,3.685.927,6.6,4.035,8.671,9.237a.75.75,0,0,1-1.394.555c-1.879-4.726-4.448-7.53-7.635-8.336-4.4-1.113-8.8,1.9-9.917,2.742l.005,5.456a.751.751,0,0,1-.749.751Z"/><path d="M659.187,397.395l.6,1.862h1.958l-1.584,1.151.6,1.863-1.584-1.151-1.584,1.151.6-1.862-1.575-1.147h1.958Z"/><path d="M673.044,360.6l.472,1.451h1.526l-1.235.9.472,1.451-1.234-.9-1.234.9.472-1.451-1.234-.9h1.526Z"/><path d="M609.975,397.395l-.6,1.862h-1.958L609,400.408l-.6,1.862,1.584-1.151,1.586,1.152-.6-1.862,1.584-1.147h-1.963Z"/><path d="M596.114,360.6l-.472,1.451h-1.521l1.234.9-.472,1.451,1.235-.9,1.234.9-.472-1.451,1.235-.9H596.59Z"/><path d="M645.827,367.2a1.75,1.75,0,1,1,1.75-1.75A1.752,1.752,0,0,1,645.827,367.2Zm0-2a.251.251,0,0,0-.25.25c0,.276.5.276.5,0A.251.251,0,0,0,645.827,365.2Z"/><path d="M623.339,367.2a1.75,1.75,0,1,1,1.75-1.75A1.752,1.752,0,0,1,623.339,367.2Zm0-2a.251.251,0,0,0-.25.25c0,.276.5.276.5,0A.251.251,0,0,0,623.339,365.2Z"/></g></svg>