<svg xmlns="http://www.w3.org/2000/svg" width="75.69" height="80.386" viewBox="0 0 75.69 80.386"><g transform="translate(-885.888 -332.208)"><path d="M948.148,402.713H899.315a2.912,2.912,0,0,1,0-5.824h48.834a2.912,2.912,0,0,1,0,5.824Zm-48.833-4.324a1.412,1.412,0,1,0,0,2.824h48.828a1.412,1.412,0,1,0,0-2.824Z"/><path d="M949.229,345.755H898.234a1.831,1.831,0,0,1,0-3.662h51a1.831,1.831,0,0,1,0,3.662Zm0-2.162H898.234a.337.337,0,0,0-.331.334.332.332,0,0,0,.333.328h50.992a.331.331,0,1,0,0-.662Z"/><path d="M930.022,398.4H917.439a.75.75,0,0,1-.75-.75v-.169a7.042,7.042,0,1,1,14.083.167A.758.758,0,0,1,930.022,398.4Zm-11.794-1.5h11a5.551,5.551,0,0,0-5.432-4.881h-.07A5.55,5.55,0,0,0,918.228,396.9Z"/><path d="M923.731,392.1a.75.75,0,0,1-.75-.75V345.005a.75.75,0,0,1,1.5,0V391.35A.75.75,0,0,1,923.731,392.1Z"/><path d="M942.99,385.074a10.761,10.761,0,0,1-9.852-6.475.75.75,0,0,1,.688-1.048H952.15a.751.751,0,0,1,.689,1.048,10.757,10.757,0,0,1-9.849,6.475Zm-7.942-6.023a9.237,9.237,0,0,0,15.88,0Z"/><path d="M952.15,379.051a.75.75,0,0,1-.722-.549l-8.44-30.305L934.549,378.5a.75.75,0,1,1-1.445-.4l9.162-32.9a.75.75,0,0,1,1.445,0l9.162,32.9a.75.75,0,0,1-.521.924A.785.785,0,0,1,952.15,379.051Z"/><path d="M904.476,385.074a10.759,10.759,0,0,1-9.853-6.475.751.751,0,0,1,.689-1.048h18.323a.75.75,0,0,1,.688,1.048,10.755,10.755,0,0,1-9.847,6.475Zm-7.943-6.023a9.235,9.235,0,0,0,15.879,0Z"/><path d="M895.312,379.051a.785.785,0,0,1-.2-.027.75.75,0,0,1-.521-.924l9.161-32.9a.75.75,0,0,1,1.445,0l9.162,32.9a.75.75,0,1,1-1.445.4L904.473,348.2,896.034,378.5A.75.75,0,0,1,895.312,379.051Z"/><path d="M923.731,368.7a5.567,5.567,0,1,1,5.567-5.567A5.573,5.573,0,0,1,923.731,368.7Zm0-9.634a4.067,4.067,0,1,0,4.067,4.067A4.072,4.072,0,0,0,923.731,359.066Z"/><path d="M925.635,363.132a1.9,1.9,0,1,1-1.9-1.9h0a1.9,1.9,0,0,1,1.9,1.9Z"/><path d="M923.731,332.208l.6,1.862h1.958l-1.584,1.151.6,1.862-1.584-1.151-1.584,1.151.6-1.862-1.584-1.151h1.958Z"/><path d="M923.731,407.719l.6,1.862h1.958l-1.584,1.151.6,1.862-1.584-1.151-1.584,1.151.6-1.862-1.584-1.151h1.958Z"/><path d="M887.882,364.171l.472,1.451h1.526l-1.234.9.472,1.451-1.234-.9-1.234.9.472-1.451-1.234-.9h1.526Z"/><path d="M959.58,364.171l.472,1.451h1.526l-1.234.9.472,1.451-1.234-.9-1.234.9.471-1.451-1.234-.9h1.526Z"/><path d="M950.31,400.551H897.154a.75.75,0,0,1,0-1.5H950.31a.75.75,0,0,1,0,1.5Z"/><path d="M912.62,380.6H896.331a.5.5,0,0,1,0-1H912.62a.5.5,0,0,1,0,1Z"/><path d="M951.132,380.6H934.844a.5.5,0,0,1,0-1h16.288a.5.5,0,0,1,0,1Z"/><path d="M904.474,379.051a.75.75,0,0,1-.75-.75V345.4a.75.75,0,0,1,1.5,0v32.9A.75.75,0,0,1,904.474,379.051Z"/><path d="M942.989,379.051a.75.75,0,0,1-.75-.75V345.4a.75.75,0,0,1,1.5,0v32.9A.75.75,0,0,1,942.989,379.051Z"/></g></svg>