<svg xmlns="http://www.w3.org/2000/svg" width="78.105" height="70.338" viewBox="0 0 78.105 70.338"><g transform="translate(-1029.026 -506.261)"><path d="M1096.943,541.021c-.02,0-.041,0-.061,0a.752.752,0,0,1-.567-.337,31.2,31.2,0,0,0-6.552-7.25c-4.007-3.181-7.186-3.575-7.352-3.593l-.024,0c-3.227-.313-5.852,1.026-8.623,2.445a20.84,20.84,0,0,1-6.874,2.543c-5.948.731-12.328-.376-17.223-1.419q-.974-.208-1.942-.436c-8.7-2.063-12.836-4.7-12.286-7.84l.013,0c.574-1.479,10.344-8.736,16.986-9.42,4.832-.521,13.862,1.375,21.119,2.9a79.488,79.488,0,0,0,8.8,1.6c1.715.08,4.253-.833,6.928-1.8,3.568-1.284,7.614-2.737,10.859-2.174v.006a.26.26,0,0,1,.064.009.75.75,0,0,1,.117,1.408c-1.544.851-8.851,6.128-8.254,8.245.325,1.336,1.97,2.923,3.56,4.458,1.885,1.82,3.665,3.538,3.768,5.236a7.236,7.236,0,0,1-1.9,5.175A.748.748,0,0,1,1096.943,541.021Zm-14.411-12.668a17.387,17.387,0,0,1,8.167,3.907,32.688,32.688,0,0,1,6.287,6.735,5.725,5.725,0,0,0,.915-3.321c-.066-1.1-1.79-2.76-3.311-4.228-1.744-1.683-3.547-3.424-3.968-5.155-.352-1.246.4-2.806,2.3-4.74a47.859,47.859,0,0,1,4.7-3.889,34.529,34.529,0,0,0-7.833,2.164c-2.816,1.014-5.477,1.978-7.5,1.882a77.435,77.435,0,0,1-9.047-1.626c-7.151-1.5-16.055-3.381-20.651-2.877-6.429.662-14.445,7.208-15.7,8.385-.077,2.036,4.057,4.234,11.172,5.92q.954.222,1.913.429c4.778,1.019,11,2.1,16.725,1.4a19.442,19.442,0,0,0,6.374-2.39c2.842-1.456,5.767-2.968,9.453-2.6Z"/><path d="M1062.824,531.844a64.131,64.131,0,0,1-13.161-1.655q-.612-.129-1.222-.268a.75.75,0,0,1,.334-1.463c.4.091.8.18,1.2.265,4.78,1.018,11,2.1,16.726,1.4a19.425,19.425,0,0,0,6.376-2.391c2.843-1.455,5.789-2.96,9.452-2.6a10.756,10.756,0,0,1,2.386.612.751.751,0,0,1-.539,1.4,9.249,9.249,0,0,0-2.023-.525c-3.206-.308-5.821,1.03-8.592,2.449a20.823,20.823,0,0,1-6.875,2.544A33.487,33.487,0,0,1,1062.824,531.844Z"/><path d="M1062.824,535.053a64.107,64.107,0,0,1-13.159-1.656q-.974-.2-1.944-.436l-.392-.093a.75.75,0,1,1,.346-1.459l.392.093c.635.15,1.271.294,1.909.428,4.78,1.02,11,2.1,16.727,1.4a19.451,19.451,0,0,0,6.383-2.39c2.474-1.266,5.03-2.575,8.081-2.653h.02a.75.75,0,0,1,.019,1.5c-2.71.069-5.006,1.244-7.436,2.488a20.851,20.851,0,0,1-6.882,2.543A33.508,33.508,0,0,1,1062.824,535.053Z"/><path d="M1084.624,527.25a.75.75,0,0,1-.509-1.3,3,3,0,0,0,.7-.971c0-.124-.446-1.227-2.9-3.391a.788.788,0,0,1-.3-.861l.715.225.516-.544c3.9,3.43,3.5,4.69,3.374,5.1a4.531,4.531,0,0,1-1.083,1.54A.744.744,0,0,1,1084.624,527.25Z"/><path d="M1081.538,529.787a.75.75,0,0,1-.431-1.364,24.987,24.987,0,0,0,3-2.464.75.75,0,0,1,1.04,1.082,26.664,26.664,0,0,1-3.177,2.61A.742.742,0,0,1,1081.538,529.787Z"/><path d="M1083.824,522.632l-.195-.46-.495-.069c.119-.849,10.112-3.432,13.887-3.59a.521.521,0,0,1,.52.479.5.5,0,0,1-.479.521C1091.9,519.729,1083.9,522.6,1083.824,522.632Z"/><path d="M1084.623,524.021a.75.75,0,0,1-.11-1.491,75.869,75.869,0,0,1,8.528-.793.75.75,0,0,1,.055,1.5,74.8,74.8,0,0,0-8.361.777A.7.7,0,0,1,1084.623,524.021Z"/><path d="M1098.269,538.586a.5.5,0,0,1-.452-.284c-2.532-5.3-13.964-10.652-14.08-10.7a.5.5,0,0,1,.42-.909c.484.225,11.875,5.554,14.563,11.181a.5.5,0,0,1-.451.716Z"/><path d="M1093.452,530a.743.743,0,0,1-.445-.148c-1.237-.916-4.88-2.405-7.876-3.494a.815.815,0,0,1-.538-.855l1.476.263-.738-.133.265-.7c1.55.563,6.584,2.443,8.3,3.716a.75.75,0,0,1-.447,1.353Z"/><path d="M1091.366,525.969l-.059,0-5.869-.459a.75.75,0,1,1,.118-1.5l5.868.459a.75.75,0,0,1-.058,1.5Z"/><path d="M1047.5,532.888a.751.751,0,0,1-.679-1.069c3.618-7.724-.01-12.553-.258-12.863a.75.75,0,0,1,.509-1.3c.4,0,.621.238,1.046.906.888,1.4,3.515,6.522.063,13.9A.751.751,0,0,1,1047.5,532.888Z"/><path d="M1041.12,526.855a1.567,1.567,0,0,1-1.563-1.572,1.6,1.6,0,0,1,1.579-1.6,1.55,1.55,0,0,1,1.543,1.562l-.5.022h.5A1.586,1.586,0,0,1,1041.12,526.855Zm.018-2.168a.593.593,0,0,0-.581.591.565.565,0,0,0,.558.577.58.58,0,0,0,.563-.582v-.046A.544.544,0,0,0,1041.138,524.687Z"/><path d="M1041.65,524.727a.542.542,0,0,1-.536.545.534.534,0,0,1-.53-.538v-.008a.551.551,0,0,1,.546-.545.527.527,0,0,1,.52.534h0Z"/><path d="M1038.578,527.207a.506.506,0,0,1-.144-.021,6.2,6.2,0,0,1-2.612-1.574.5.5,0,0,1,.711-.7,5.215,5.215,0,0,0,2.19,1.32.5.5,0,0,1-.145.978Z"/><path d="M1073.858,519.865a.861.861,0,0,1-.178-.636c.122-1.023-.09-2.869-2.884-3.746a38.119,38.119,0,0,1-4.906-1.964,8.687,8.687,0,0,0-2.825-1.008c-.974.027-5,3.629-5.709,4.436l-.547-.482-.035.013-.748-.059c.072-.92,5.454-5.364,6.99-5.407a8.6,8.6,0,0,1,3.5,1.145,37.037,37.037,0,0,0,4.723,1.9c4.084,1.282,4.037,4.423,3.926,5.355l-.73-.058Z"/><path d="M1065.262,539.5a6.587,6.587,0,0,1-4.978-1.979,13.223,13.223,0,0,0-4.334-3.016.75.75,0,0,1,.6-1.377,14.726,14.726,0,0,1,4.818,3.352,5.721,5.721,0,0,0,4.9,1.476,23.333,23.333,0,0,1-.221-3.906.751.751,0,0,1,.75-.729h.021a.752.752,0,0,1,.729.772,21.777,21.777,0,0,0,.327,4.418.75.75,0,0,1-.7.88c-.145.007-.3.021-.478.035C1066.284,539.462,1065.8,539.5,1065.262,539.5Z"/><path d="M1082.805,536.9c-.87,0-2.386-.686-4.529-2.051a12.273,12.273,0,0,0-5.517-2.22.75.75,0,1,1,.2-1.486,13.738,13.738,0,0,1,6.157,2.464,16.114,16.114,0,0,0,3.162,1.678c.582-4.139-.4-5.269-1.059-5.573a.75.75,0,1,1,.631-1.361c1.887.874,2.508,3.431,1.845,7.6-.013.085-.024.151-.031.2a.741.741,0,0,1-.224.538A.873.873,0,0,1,1082.805,536.9Z"/><path d="M1058.984,516.952l-.376-.305-.024.009-.5.039c-.057-.727,4.971-5.042,5.626-5.283a.5.5,0,0,1,.346.938C1063.083,512.71,1059.313,516.548,1058.984,516.952Z"/><path d="M1061.127,517.236l-.374-.308-.024.01-.5-.025c.024-.508,4.453-4.757,5.389-4.829a.5.5,0,1,1,.076,1C1065.054,513.26,1061.557,516.714,1061.127,517.236Z"/><path d="M1063.653,517.617l-.4-.284-.015.008-.484.124c-.162-.635,3.207-3.961,4.31-4.563a.5.5,0,0,1,.479.877A19.186,19.186,0,0,0,1063.653,517.617Z"/><path d="M1065.313,518.211a.5.5,0,0,1-.378-.826,41.363,41.363,0,0,1,3.652-3.733.5.5,0,0,1,.67.744,40.46,40.46,0,0,0-3.565,3.641A.5.5,0,0,1,1065.313,518.211Z"/><path d="M1067.349,518.536a.508.508,0,0,1-.356-.147.5.5,0,0,1,0-.708,46.666,46.666,0,0,1,3.711-3.305.5.5,0,0,1,.625.781,45.4,45.4,0,0,0-3.631,3.235A.5.5,0,0,1,1067.349,518.536Z"/><path d="M1070.253,518.831l-.373-.322-.014.007-.477.148c-.193-.618,2.969-3.222,3-3.244a.705.705,0,0,1,.847-.086.5.5,0,0,1-.257.891A29.784,29.784,0,0,0,1070.253,518.831Z"/><path d="M1072.225,519.593a.5.5,0,0,1-.353-.855q.942-.936,1.906-1.865a.5.5,0,0,1,.694.721q-.96.924-1.9,1.853A.5.5,0,0,1,1072.225,519.593Z"/><path d="M1063.866,539.129a.49.49,0,0,1-.274-.082c-.051-.033-4.839-4.394-4.716-4.988l.49.1.469.174-.469-.174.4-.3c.263.321,3.846,4,4.377,4.352a.5.5,0,0,1-.275.918Z"/><path d="M1065.766,539.24a.494.494,0,0,1-.371-.165,36.96,36.96,0,0,1-3.473-4.5.5.5,0,0,1,.836-.549,36.14,36.14,0,0,0,3.379,4.377.5.5,0,0,1-.371.835Z"/><path d="M1067.133,539.145a.5.5,0,0,1-.429-.243,46.862,46.862,0,0,1-2.334-4.4.5.5,0,0,1,.908-.42,45.781,45.781,0,0,0,2.284,4.308.5.5,0,0,1-.171.686A.506.506,0,0,1,1067.133,539.145Z"/><path d="M1083.11,535.289a.5.5,0,0,1-.324-.119c-1.161-.989-5.383-2.5-8.645-3.5a.539.539,0,0,1-.384-.564l.988.15-.494-.075.151-.477c1.737.53,7.426,2.335,9.033,3.7a.5.5,0,0,1-.325.881Z"/><path d="M1083.2,533.3a.5.5,0,0,1-.295-.1c-1.116-.815-5.286-2.067-6.8-2.48a.5.5,0,0,1,.264-.965c.229.062,5.632,1.548,7.125,2.637a.5.5,0,0,1-.3.9Z"/><path d="M1083.066,531.839a.5.5,0,0,1-.392-.191,10.847,10.847,0,0,0-3.667-1.893.5.5,0,1,1,.318-.947c.332.111,3.266,1.123,4.134,2.221a.5.5,0,0,1-.393.81Z"/><path d="M1081.879,567.232c-5.064,0-12.869-1.641-19.288-2.992a80.383,80.383,0,0,0-8.79-1.594c-1.734-.08-4.255.834-6.928,1.795-3.568,1.284-7.618,2.736-10.858,2.174v-.008a.317.317,0,0,1-.078-.009.751.751,0,0,1-.1-1.406c1.544-.85,8.851-6.126,8.253-8.245-.326-1.335-1.969-2.921-3.559-4.456-1.884-1.819-3.666-3.539-3.769-5.237a7.236,7.236,0,0,1,1.9-5.175.735.735,0,0,1,.614-.24.744.744,0,0,1,.567.338,31.211,31.211,0,0,0,6.551,7.249c4.007,3.178,7.2,3.575,7.356,3.593l.019,0c3.233.307,5.852-1.027,8.625-2.446a20.874,20.874,0,0,1,6.875-2.544c5.948-.731,12.331.376,17.222,1.421q.975.208,1.943.436c8.7,2.058,12.836,4.7,12.284,7.84l-.014,0c-.58,1.484-10.337,8.734-16.985,9.419A17.463,17.463,0,0,1,1081.879,567.232Zm-28.278-6.089c.089,0,.177,0,.264.005a77.7,77.7,0,0,1,9.035,1.624c7.156,1.505,16.062,3.382,20.663,2.879,6.423-.66,14.444-7.207,15.7-8.384.076-2.038-4.058-4.237-11.174-5.919q-.952-.224-1.911-.429c-4.778-1.02-10.995-2.1-16.725-1.4a19.432,19.432,0,0,0-6.375,2.39c-2.843,1.455-5.79,2.958-9.453,2.6v0c-.826-.065-4.22-.78-8.167-3.911a32.685,32.685,0,0,1-6.286-6.735,5.722,5.722,0,0,0-.915,3.32c.066,1.1,1.791,2.76,3.312,4.229,1.743,1.683,3.545,3.423,3.967,5.153.36,1.274-.432,2.874-2.428,4.868a47.506,47.506,0,0,1-4.584,3.761,34.432,34.432,0,0,0,7.839-2.164C1049.06,562.061,1051.611,561.143,1053.6,561.143Z"/><path d="M1054.722,557.785c-.358,0-.722-.017-1.093-.054a10.717,10.717,0,0,1-2.385-.61.75.75,0,0,1,.537-1.4,9.209,9.209,0,0,0,2.024.521c3.2.316,5.821-1.03,8.593-2.448a20.855,20.855,0,0,1,6.874-2.544c5.944-.729,12.328.375,17.223,1.42.408.086.816.176,1.22.268a.749.749,0,0,1-.33,1.462q-.6-.134-1.2-.263c-4.784-1.021-11-2.1-16.727-1.4a19.455,19.455,0,0,0-6.375,2.391C1060.527,556.437,1057.894,557.785,1054.722,557.785Z"/><path d="M1054.973,554.572a.75.75,0,0,1-.019-1.5c2.71-.068,5.006-1.244,7.437-2.488a20.861,20.861,0,0,1,6.88-2.543c5.946-.731,12.329.375,17.223,1.42q.973.207,1.944.436l.393.094a.75.75,0,1,1-.348,1.459l-.392-.094c-.634-.149-1.271-.293-1.909-.428-4.781-1.021-11.005-2.1-16.726-1.4a19.447,19.447,0,0,0-6.382,2.391c-2.473,1.266-5.03,2.575-8.083,2.652Z"/><path d="M1053.318,562.45c-3.9-3.43-3.5-4.69-3.374-5.1a4.608,4.608,0,0,1,1.081-1.538.75.75,0,1,1,1.022,1.1,3.042,3.042,0,0,0-.7.975c0,.123.447,1.225,2.905,3.389a.788.788,0,0,1,.3.861l-1.429-.458.713.232Z"/><path d="M1051.536,557.107a.75.75,0,0,1-.519-1.291,26.64,26.64,0,0,1,3.175-2.61.75.75,0,0,1,.86,1.229,25.248,25.248,0,0,0-3,2.463A.748.748,0,0,1,1051.536,557.107Z"/><path d="M1039.123,564.349a.5.5,0,0,1-.021-1c5.169-.218,13.173-3.095,13.249-3.123l.178.464h.007l.5-.01c.008.377.012.549-5.088,1.99a42.744,42.744,0,0,1-8.8,1.68Z"/><path d="M1043.093,560.873a.5.5,0,0,1-.018-1,74.292,74.292,0,0,0,8.387-.778.5.5,0,1,1,.148.988,75.322,75.322,0,0,1-8.5.79Z"/><path d="M1052.213,556.216a.5.5,0,0,1-.21-.046c-.484-.225-11.876-5.554-14.562-11.183a.5.5,0,1,1,.9-.429c2.53,5.3,13.964,10.651,14.079,10.7a.5.5,0,0,1-.21.954Z"/><path d="M1050.649,557.689c-1.549-.563-6.554-2.434-8.24-3.683a.5.5,0,0,1,.6-.8c1.253.928,4.919,2.43,7.931,3.526a.577.577,0,0,1,.384.581l-.984-.176.492.089Z"/><path d="M1050.667,558.6l-.04,0-5.867-.459a.5.5,0,0,1,.076-1l5.869.459a.5.5,0,0,1-.038,1Z"/><path d="M1089.087,565.2c-.4,0-.621-.237-1.045-.9-.888-1.4-3.516-6.523-.063-13.9a.75.75,0,1,1,1.359.637c-3.617,7.724.011,12.553.258,12.862a.75.75,0,0,1-.509,1.3Z"/><path d="M1095.025,559.177a1.554,1.554,0,0,1-1.545-1.566l.5-.019h-.5a1.589,1.589,0,0,1,1.559-1.585,1.565,1.565,0,0,1,1.563,1.577A1.6,1.6,0,0,1,1095.025,559.177Zm.019-2.169a.582.582,0,0,0-.563.583v.046a.547.547,0,0,0,.543.54.6.6,0,0,0,.58-.591.565.565,0,0,0-.163-.409A.554.554,0,0,0,1095.044,557.008Z"/><path d="M1094.509,558.131a.545.545,0,0,1,.536-.546.537.537,0,0,1,.53.54v.006a.552.552,0,0,1-.546.545.524.524,0,0,1-.52-.528h0Z"/><path d="M1099.982,558.1a.5.5,0,0,1-.355-.149,5.218,5.218,0,0,0-2.19-1.32.5.5,0,0,1,.291-.957,6.224,6.224,0,0,1,2.61,1.574.5.5,0,0,1-.356.852Z"/><path d="M1073.045,571.85a9.112,9.112,0,0,1-3.4-1.148,36.948,36.948,0,0,0-4.725-1.894c-4.091-1.283-4.039-4.425-3.926-5.358l.73.06.581-.516a.857.857,0,0,1,.178.637c-.124,1.022.086,2.868,2.884,3.745a38.16,38.16,0,0,1,4.907,1.965,9.119,9.119,0,0,0,2.824,1.008c.975-.028,5-3.629,5.708-4.437l.547.483.035-.013.748.057c-.07.92-5.452,5.366-6.989,5.409Z"/><path d="M1079.913,549.79a.75.75,0,0,1-.3-.061,14.711,14.711,0,0,1-4.818-3.353,5.708,5.708,0,0,0-4.9-1.476,23.43,23.43,0,0,1,.22,3.906.75.75,0,0,1-.75.728h-.021a.751.751,0,0,1-.729-.771,21.664,21.664,0,0,0-.328-4.416.751.751,0,0,1,.7-.881c.145-.008.3-.022.479-.035,1.582-.131,4.226-.349,6.414,1.9a13.19,13.19,0,0,0,4.334,3.017.75.75,0,0,1-.3,1.438Z"/><path d="M1054.622,554.569a.75.75,0,0,1-.315-.069c-1.886-.874-2.507-3.429-1.845-7.6.014-.086.024-.154.031-.2a.741.741,0,0,1,.224-.539c.6-.584,2.334.032,5.167,1.839a12.3,12.3,0,0,0,5.516,2.22.75.75,0,1,1-.2,1.486,13.744,13.744,0,0,1-6.156-2.465,16.141,16.141,0,0,0-3.162-1.679c-.556,3.93.259,5.2,1.059,5.574a.75.75,0,0,1-.316,1.43Z"/><path d="M1072.273,571.478a.5.5,0,0,1-.172-.969c.98-.362,4.744-4.2,5.071-4.6l.377.306.024-.01.5-.039c.058.729-4.97,5.043-5.626,5.284A.473.473,0,0,1,1072.273,571.478Z"/><path d="M1070.5,570.772a.5.5,0,0,1-.036-1c.646-.18,4.136-3.632,4.564-4.154l.374.308.026-.01.5.029c-.038.664-4.621,4.768-5.39,4.825Z"/><path d="M1068.857,570.018a.5.5,0,0,1-.24-.939,18.98,18.98,0,0,0,3.888-3.837l.4.283.016-.007.484-.124c.162.633-3.206,3.96-4.308,4.562A.5.5,0,0,1,1068.857,570.018Z"/><path d="M1067.239,569.332a.5.5,0,0,1-.335-.872,40.167,40.167,0,0,0,3.564-3.641.5.5,0,0,1,.758.653,41.611,41.611,0,0,1-3.652,3.732A.5.5,0,0,1,1067.239,569.332Z"/><path d="M1065.141,568.591a.5.5,0,0,1-.313-.891,45.114,45.114,0,0,0,3.631-3.234.5.5,0,1,1,.7.709,46.526,46.526,0,0,1-3.711,3.306A.5.5,0,0,1,1065.141,568.591Z"/><path d="M1063.244,567.64a.526.526,0,0,1-.325-.114.5.5,0,0,1,.255-.892,29.794,29.794,0,0,0,2.729-2.607l.373.323.014-.007.478-.15c.2.626-2.964,3.218-3,3.241A.978.978,0,0,1,1063.244,567.64Z"/><path d="M1062.035,566.369a.75.75,0,0,1-.519-1.291q.959-.921,1.89-1.849a.75.75,0,1,1,1.059,1.063q-.94.938-1.91,1.868A.748.748,0,0,1,1062.035,566.369Z"/><path d="M1076.492,548.918c-.256-.315-3.841-4.006-4.4-4.376a.375.375,0,1,1,.412-.627c.05.032,4.758,4.391,4.661,4.856l-.367-.075-.351-.132.351.132Z"/><path d="M1073.819,549.056a.5.5,0,0,1-.418-.226,35.716,35.716,0,0,0-3.38-4.378.5.5,0,0,1,.743-.67,36.983,36.983,0,0,1,3.473,4.5.5.5,0,0,1-.418.775Z"/><path d="M1071.336,549.071a.5.5,0,0,1-.454-.29,45.559,45.559,0,0,0-2.284-4.3.5.5,0,1,1,.857-.516,46.651,46.651,0,0,1,2.334,4.4.5.5,0,0,1-.243.663A.476.476,0,0,1,1071.336,549.071Z"/><path d="M1061.755,552.148c-1.735-.53-7.425-2.335-9.032-3.7a.5.5,0,1,1,.648-.761c1.162.99,5.384,2.5,8.646,3.5a.538.538,0,0,1,.383.563l-.988-.149.494.075Z"/><path d="M1059.916,553.113a.55.55,0,0,1-.132-.017c-.229-.063-5.631-1.548-7.124-2.636a.5.5,0,0,1,.59-.809c1.116.815,5.285,2.067,6.8,2.48a.5.5,0,0,1-.132.982Z"/><path d="M1056.995,554.327a.772.772,0,0,1-.239-.039c-.554-.186-3.364-1.173-4.251-2.305a.75.75,0,0,1,1.18-.925,10.635,10.635,0,0,0,3.549,1.808.75.75,0,0,1-.239,1.461Z"/><path d="M1079.5,506.261l.6,1.862h1.966l-1.584,1.151.6,1.862-1.584-1.151-1.584,1.151.6-1.862-1.584-1.151h1.958Z"/><path d="M1054.166,571.722l.6,1.862h1.958l-1.584,1.151.6,1.862-1.584-1.151-1.584,1.151.6-1.862-1.571-1.154h1.96Z"/><path d="M1048.942,509.236l.471,1.451h1.526l-1.234.9.472,1.451-1.234-.9-1.234.9.471-1.451-1.234-.9h1.526Z"/><path d="M1085.666,572.8l.471,1.451h1.529l-1.234.9.471,1.451-1.234-.9-1.235.9.472-1.451-1.234-.9h1.526Z"/><path d="M1105.134,541.493l.471,1.451h1.526l-1.234.9.472,1.451-1.234-.9-1.234.9.471-1.451-1.234-.9h1.528Z"/><path d="M1031.027,538.147l.471,1.451h1.522l-1.234.9.471,1.451-1.234-.9-1.234.9.471-1.451-1.234-.9h1.526Z"/></g></svg>