<svg xmlns="http://www.w3.org/2000/svg" width="68.636" height="80.529" viewBox="0 0 68.636 80.529"><g transform="translate(-600.271 -500.521)"><path d="M602.834,554.061l.605,1.862H605.4l-1.584,1.151.6,1.862-1.584-1.151-1.584,1.151.6-1.862-1.583-1.147h1.958Z"/><path d="M610.344,512.433l.472,1.451h1.526l-1.234.9.472,1.451-1.235-.9-1.234.9.472-1.451-1.235-.9h1.526Z"/><path d="M666.33,554.061l-.6,1.862h-1.959l1.584,1.151-.6,1.862,1.584-1.151,1.584,1.151-.6-1.862,1.584-1.151h-1.958Z"/><path d="M658.821,512.433l-.472,1.451h-1.526l1.234.9-.472,1.451,1.234-.9,1.234.9-.472-1.454,1.234-.9h-1.526Z"/><path d="M634.582,577.248l.472,1.451h1.526l-1.235.9.472,1.451-1.234-.9-1.235.9.472-1.451-1.234-.9h1.526Z"/><path d="M605.28,543.231a2.633,2.633,0,0,1-.005-5.265h4.344a28.49,28.49,0,0,1,49.928,0h4.333a2.633,2.633,0,0,1,0,5.265h-5.943a2.644,2.644,0,0,1-2.377-1.5,23.227,23.227,0,0,0-41.958,0,2.646,2.646,0,0,1-2.378,1.5H605.28Zm0-3.765a1.133,1.133,0,0,0,.005,2.265h5.943a1.137,1.137,0,0,0,1.023-.646,24.727,24.727,0,0,1,44.668,0,1.134,1.134,0,0,0,1.022.646h5.939a1.133,1.133,0,0,0,0-2.265H659.1a.745.745,0,0,1-.662-.4,26.993,26.993,0,0,0-47.708,0,.748.748,0,0,1-.663.4Z"/><path d="M604.4,542.752a.5.5,0,0,1-.233-.058,2.376,2.376,0,0,1,1.109-4.478h4.488a28.24,28.24,0,0,1,49.631,0h4.49A2.376,2.376,0,0,1,665,542.694a.5.5,0,0,1-.726-.531,1.223,1.223,0,0,0,.02-.2,1.325,1.325,0,0,0-1.324-1.315H658.33a.5.5,0,0,1-.442-.265,26.375,26.375,0,0,0-46.616,0,.5.5,0,0,1-.442.265H606.2a1.327,1.327,0,0,0-1.325,1.326,1.134,1.134,0,0,0,.021.189.5.5,0,0,1-.2.492A.5.5,0,0,1,604.4,542.752Zm.878-3.536a1.378,1.378,0,0,0-1.257,1.945,2.325,2.325,0,0,1,2.176-1.513h4.332a27.376,27.376,0,0,1,48.1,0h4.337a2.331,2.331,0,0,1,2.176,1.509,1.376,1.376,0,0,0-1.254-1.941H659.1a.5.5,0,0,1-.442-.266,27.239,27.239,0,0,0-48.149,0,.5.5,0,0,1-.442.266H605.28Z"/><path d="M634.581,571.077a.75.75,0,0,1-.75-.75V519.14a.75.75,0,0,1,1.5,0v51.187A.75.75,0,0,1,634.581,571.077Z"/><path d="M639.586,521.627a.754.754,0,0,1-.264-.048l-4.736-1.781-4.736,1.781a.75.75,0,0,1-.933-1.041l5-9.879a.781.781,0,0,1,1.338,0l5,9.879a.749.749,0,0,1-.669,1.089Zm-5-3.38a.752.752,0,0,1,.264.048l3.2,1.2-3.461-6.838-3.461,6.838,3.2-1.2A.752.752,0,0,1,634.586,518.247Z"/><path d="M638.887,570.44a.5.5,0,0,1-.353-.146l-3.957-3.956-3.956,3.956a.5.5,0,0,1-.854-.354v-2.652a.5.5,0,0,1,.147-.353l4.31-4.31a.5.5,0,0,1,.707,0l4.31,4.31a.5.5,0,0,1,.146.353v2.652a.5.5,0,0,1-.5.5Zm-4.31-5.309a.5.5,0,0,1,.354.146l3.456,3.456v-1.238l-3.81-3.809-3.81,3.809v1.238l3.457-3.456A.5.5,0,0,1,634.577,565.131Z"/><path d="M638.887,573.08a.5.5,0,0,1-.353-.146l-3.957-3.956-3.956,3.956a.5.5,0,0,1-.854-.354v-2.64a.5.5,0,0,1,.147-.353l4.31-4.31a.5.5,0,0,1,.707,0l4.31,4.31a.5.5,0,0,1,.146.353v2.64a.5.5,0,0,1-.308.462A.512.512,0,0,1,638.887,573.08Zm-4.31-5.309a.5.5,0,0,1,.354.146l3.456,3.456v-1.226l-3.81-3.809-3.81,3.809v1.226l3.457-3.456A.494.494,0,0,1,634.577,567.771Z"/><path d="M638.887,575.571h-.166a.5.5,0,0,1-.353-.146l-3.791-3.79-3.79,3.79a.5.5,0,0,1-.354.146h-.167a.5.5,0,0,1-.5-.5v-2.486a.5.5,0,0,1,.147-.354l4.31-4.309a.5.5,0,0,1,.707,0l4.311,4.3a.5.5,0,0,1,.146.353v2.491A.5.5,0,0,1,638.887,575.571Zm-8.121-2.779v1.239l3.458-3.457a.5.5,0,0,1,.707,0l3.456,3.456v-1.243l-3.811-3.8Z"/><path d="M634.581,547.852a4.22,4.22,0,1,1,4.221-4.22h0A4.225,4.225,0,0,1,634.581,547.852Zm0-6.941a2.72,2.72,0,1,0,2.72,2.722A2.724,2.724,0,0,0,634.582,540.911Zm3.47,2.722h0Z"/><path d="M636.238,543.631a1.656,1.656,0,1,1-1.656-1.656,1.655,1.655,0,0,1,1.656,1.656Z"/><path d="M634.578,563.729a.75.75,0,0,1-.529-.218L612.4,541.938a.75.75,0,1,1,1.059-1.062l21.123,21.045,21.131-21.045a.75.75,0,1,1,1.059,1.062l-21.661,21.573A.748.748,0,0,1,634.578,563.729Z"/><path d="M634.582,511.752h0a6.421,6.421,0,0,1-6.41-6.414h0a6.424,6.424,0,0,1,1.961-4.607.75.75,0,0,1,1.2.854,3.581,3.581,0,1,0,6.507,0,.75.75,0,0,1,1.2-.853,6.413,6.413,0,0,1-4.46,11.02Zm-5.662-6.414h.75a4.919,4.919,0,0,0,4.911,4.914h0a4.917,4.917,0,0,0,4.912-4.91,4.849,4.849,0,0,0-.058-.753,5.079,5.079,0,0,1-9.466.616,4.807,4.807,0,0,1-.24-.626,4.808,4.808,0,0,0-.06.759Z"/></g></svg>