<svg xmlns="http://www.w3.org/2000/svg" width="77.455" height="71.869" viewBox="0 0 77.455 71.869"><g transform="translate(-1029.662 -336.466)"><path d="M1077.154,343.946a.75.75,0,0,1-.2-1.474,1.28,1.28,0,0,0,.31-.177,2.153,2.153,0,0,1-1.246.135.75.75,0,0,1,.356-1.457c.408.087,1.781-.853,2.833-1.955a.75.75,0,0,1,1.26.738c-1.107,3.589-2.938,4.121-3.143,4.17A.745.745,0,0,1,1077.154,343.946Z"/><path d="M1070.273,342.417a.725.725,0,0,1-.482-.184c-.158-.14-1.521-1.473-.807-5.159a.751.751,0,0,1,.706-.606.737.737,0,0,1,.753.548c.411,1.47,1.178,2.958,1.579,3.061a.75.75,0,1,1-.375,1.452,2.147,2.147,0,0,1-1.035-.707,1.259,1.259,0,0,0,.193.305.764.764,0,0,1,.016,1.052A.755.755,0,0,1,1070.273,342.417Z"/><path d="M1060.057,379.372c-1.009,0-7.263-.706-9.995-4.346-1.631-.554-5.543-2.6-6.108-6.169a32.488,32.488,0,0,1-.822-6.189.749.749,0,0,1,1.459-.268,26.147,26.147,0,0,0,2.735,5.692c.157.117.544.38.891.616a24.209,24.209,0,0,1,4.269,3.313c.164.052.422.13.748.229a72.5,72.5,0,0,1,7.064,2.454.75.75,0,1,1-.611,1.369,71.232,71.232,0,0,0-6.891-2.388c-1.075-.329-1.414-.433-1.5-.762a28.852,28.852,0,0,0-3.918-2.975c-1.038-.7-1.264-.858-1.34-1.092q-.449-.7-.852-1.433.111.576.244,1.147c.536,3.38,4.883,4.954,5.225,5.071a.75.75,0,0,1,.487.312c2.209,3.21,7.943,3.914,8.861,3.922a.751.751,0,0,1,.784,1.008.769.769,0,0,1-.62.485A.935.935,0,0,1,1060.057,379.372Z"/><path d="M1050.516,375.121a.731.731,0,0,1-.1-.008.749.749,0,0,1-.64-.843,3.328,3.328,0,0,1,1.162-2.213,1.512,1.512,0,0,1,1.317-.133.75.75,0,1,1-.482,1.42c-.186.049-.435.6-.51,1.132A.752.752,0,0,1,1050.516,375.121Z"/><path d="M1044.882,370.229a.749.749,0,0,1-.324-1.426q.946-.453,1.839-.909a.75.75,0,1,1,.684,1.335q-.911.468-1.877.927A.744.744,0,0,1,1044.882,370.229Z"/><path d="M1059.018,374.8a.783.783,0,0,1-.118-.009c-.518-.082-6.81-2.5-8.513-6.959-.5-.359-4.679-3.473-4.17-7.613a32.482,32.482,0,0,1,.917-6.182.749.749,0,0,1,1.476.145,26.146,26.146,0,0,0,1.061,6.228c.119.157.423.52.694.846a24.231,24.231,0,0,1,3.181,4.351c.143.1.369.241.653.426a71.2,71.2,0,0,1,6.116,4.308.75.75,0,1,1-.966,1.147,70.707,70.707,0,0,0-5.966-4.2c-.9-.586-1.239-.8-1.237-1.155a29.237,29.237,0,0,0-2.933-3.92c-.812-.973-.986-1.182-.995-1.429q-.237-.8-.426-1.616c-.034.392-.063.784-.082,1.178-.416,3.4,3.323,6.106,3.623,6.314a.749.749,0,0,1,.383.434c1.243,3.7,6.558,5.954,7.437,6.214a.75.75,0,0,1,.476,1.185A.764.764,0,0,1,1059.018,374.8Z"/><path d="M1051,368.087a.73.73,0,0,1-.3-.065.747.747,0,0,1-.381-.987c.112-.252.717-1.523,1.726-1.806a1.514,1.514,0,0,1,1.3.237.75.75,0,1,1-.856,1.231h0c-.192,0-.581.459-.8.946A.751.751,0,0,1,1051,368.087Z"/><path d="M1046.936,361.83a.75.75,0,0,1-.125-1.49c.689-.117,1.364-.239,2.021-.368a.75.75,0,0,1,.287,1.473q-1,.2-2.056.374A.788.788,0,0,1,1046.936,361.83Z"/><path d="M1061.149,366.649a.783.783,0,0,1-.118-.009c-.518-.082-6.808-2.514-8.509-6.964-.511-.365-4.673-3.48-4.163-7.616a32.529,32.529,0,0,1,.916-6.181.76.76,0,0,1,.8-.566.751.751,0,0,1,.676.711,26.168,26.168,0,0,0,1.057,6.228c.119.157.42.519.69.844a24.264,24.264,0,0,1,3.183,4.358c.143.1.371.243.658.429a71.655,71.655,0,0,1,6.106,4.308.75.75,0,1,1-.967,1.147,70.585,70.585,0,0,0-5.958-4.2c-.9-.588-1.241-.808-1.24-1.158a29.093,29.093,0,0,0-2.934-3.928c-.809-.971-.982-1.179-.992-1.425q-.234-.8-.421-1.607-.052.582-.081,1.166c-.418,3.4,3.319,6.111,3.618,6.318a.756.756,0,0,1,.382.435c1.243,3.7,6.553,5.957,7.432,6.218a.752.752,0,0,1,.476,1.188A.764.764,0,0,1,1061.149,366.649Z"/><path d="M1053.141,359.933a.75.75,0,0,1-.685-1.054c.111-.252.72-1.523,1.729-1.8a1.5,1.5,0,0,1,1.3.237.75.75,0,1,1-.857,1.23h0c-.19,0-.58.46-.8.947A.75.75,0,0,1,1053.141,359.933Z"/><path d="M1049.076,353.669a.75.75,0,0,1-.122-1.489q1.035-.174,2.02-.366a.75.75,0,0,1,.289,1.472q-1,.2-2.063.373A.741.741,0,0,1,1049.076,353.669Z"/><path d="M1062.634,361.022a.77.77,0,0,1-.2-.025c-.506-.135-6.5-3.2-7.724-7.829-1.264-1.088-4.158-4.478-3.333-8.016a32.7,32.7,0,0,1,1.571-6.048.75.75,0,0,1,1.454.3,26.173,26.173,0,0,0,.388,6.306c.1.169.364.562.6.914a24.206,24.206,0,0,1,2.7,4.668c.132.11.34.278.6.492a71.606,71.606,0,0,1,5.623,4.937.75.75,0,1,1-1.084,1.037,70.445,70.445,0,0,0-5.486-4.81c-.831-.677-1.142-.93-1.1-1.277a29.056,29.056,0,0,0-2.5-4.215c-.7-1.053-.853-1.279-.835-1.525q-.152-.822-.25-1.652c-.078.386-.146.772-.208,1.16-.774,3.328,2.66,6.43,2.932,6.667a.746.746,0,0,1,.33.47c.842,3.8,5.887,6.621,6.733,6.974a.769.769,0,0,1,.314.181.75.75,0,0,1-.527,1.29Z"/><path d="M1055.381,353.491a.75.75,0,0,1-.649-1.124,3.327,3.327,0,0,1,1.91-1.611,1.523,1.523,0,0,1,1.27.375.75.75,0,0,1-.984,1.133c-.182-.028-.628.394-.9.855A.751.751,0,0,1,1055.381,353.491Z"/><path d="M1052,346.834a.75.75,0,0,1-.044-1.5q1.047-.063,2.047-.149a.742.742,0,0,1,.812.682.75.75,0,0,1-.681.812q-1.021.088-2.088.152Z"/><path d="M1075.41,383.076a17.636,17.636,0,0,1-7.171-1.684.769.769,0,0,1-.317-.721.75.75,0,0,1,1.167-.518c.812.426,6.2,2.507,9.664.72a.746.746,0,0,1,.574-.047c.358.059,4.937.719,6.973-1.967.27-.309.535-.622.792-.939q-.7.451-1.426.86c-.178.171-.448.2-1.7.332a29.243,29.243,0,0,0-4.834.769c-.236.259-.619.182-1.717-.032a71.1,71.1,0,0,0-7.185-1.141.75.75,0,1,1,.105-1.5,72.212,72.212,0,0,1,7.369,1.164c.342.068.613.122.784.153a24.175,24.175,0,0,1,5.32-.908c.42-.045.888-.094,1.083-.124a26.079,26.079,0,0,0,5.1-3.731.75.75,0,0,1,1.162.924,32.857,32.857,0,0,1-3.685,5.117c-2.4,3.164-7.321,2.651-8.261,2.517A8.965,8.965,0,0,1,1075.41,383.076Z"/><path d="M1079.1,382.287a.751.751,0,0,1-.691-1.043,2,2,0,0,0,.114-1.195.77.77,0,0,1-.641-.866.735.735,0,0,1,.839-.623c.349.058,1.48.376,1.342,2.063C1079.933,382.287,1079.352,382.287,1079.1,382.287Z"/><path d="M1086.38,380.626a.751.751,0,0,1-.606-.3q-.632-.86-1.217-1.7a.75.75,0,1,1,1.232-.855q.573.825,1.194,1.669a.75.75,0,0,1-.6,1.194Z"/><path d="M1074.361,378.2a13.211,13.211,0,0,1-2.847-.245.768.768,0,0,1-.506-.6.75.75,0,0,1,.608-.851.765.765,0,0,1,.37.026c.9.187,6.649.7,9.49-1.973a.692.692,0,0,1,.538-.2c.358-.042,4.94-.67,6.155-3.811q.263-.559.5-1.124-.549.629-1.137,1.224c-.123.212-.374.314-1.537.785a29.107,29.107,0,0,0-4.45,2.081c-.164.309-.568.343-1.646.435a70.515,70.515,0,0,0-7.227.887.751.751,0,0,1-.313-1.468,71.87,71.87,0,0,1,7.413-.913c.344-.03.616-.052.789-.069a24.22,24.22,0,0,1,4.871-2.343c.387-.158.82-.333,1-.414a26.074,26.074,0,0,0,3.869-4.995.75.75,0,0,1,1.372.568,33.071,33.071,0,0,1-2.127,5.936c-1.43,3.7-6.3,4.563-7.241,4.695C1080.076,377.769,1076.74,378.2,1074.361,378.2Z"/><path d="M1081.99,375.851l-.054,0a.751.751,0,0,1-.7-.8,2.026,2.026,0,0,0-.219-1.216.778.778,0,0,1-.855-.657.732.732,0,0,1,.635-.83,1.509,1.509,0,0,1,1.264.408,3.318,3.318,0,0,1,.671,2.406A.749.749,0,0,1,1081.99,375.851Z"/><path d="M1088.527,372.25a.743.743,0,0,1-.457-.157q-.847-.654-1.64-1.3a.751.751,0,1,1,.949-1.163q.775.636,1.607,1.277a.75.75,0,0,1-.459,1.344Z"/><path d="M1076.3,370a13.224,13.224,0,0,1-2.827-.241.766.766,0,0,1-.507-.6.749.749,0,0,1,.605-.853.716.716,0,0,1,.372.026c.9.185,6.647.7,9.488-1.98a.736.736,0,0,1,.538-.2c.358-.042,4.94-.671,6.152-3.815q.264-.561.5-1.127-.549.63-1.137,1.227c-.124.211-.374.314-1.536.785a29.275,29.275,0,0,0-4.447,2.082c-.161.312-.566.347-1.643.44a70.469,70.469,0,0,0-7.234.891.75.75,0,0,1-.313-1.467,71.849,71.849,0,0,1,7.418-.919c.341-.029.61-.052.782-.068a24.31,24.31,0,0,1,4.873-2.349c.387-.157.819-.332,1-.414a26.175,26.175,0,0,0,3.864-4.994.75.75,0,0,1,1.372.567,32.838,32.838,0,0,1-2.122,5.936c-1.427,3.7-6.3,4.567-7.238,4.7C1082.03,369.571,1078.681,370,1076.3,370Z"/><path d="M1084.612,367.249l-.664-.35v0l-.746-.077a2,2,0,0,0-.219-1.192.761.761,0,0,1-.856-.654.73.73,0,0,1,.633-.831,1.522,1.522,0,0,1,1.49.672A3.3,3.3,0,0,1,1084.612,367.249Z"/><path d="M1090.484,364.042a.744.744,0,0,1-.456-.155q-.847-.652-1.641-1.3a.75.75,0,1,1,.949-1.161q.777.636,1.606,1.273a.749.749,0,0,1-.458,1.344Z"/><path d="M1075.817,364.168a5.818,5.818,0,0,1-.92-.048.766.766,0,0,1-.566-.544.752.752,0,0,1,.885-.924c.91.088,6.687-.011,9.224-2.974a.748.748,0,0,1,.514-.26c.352-.08,4.841-1.192,5.712-4.446q.2-.583.38-1.169-.478.684-1,1.338c-.1.226-.341.355-1.48.965a29.094,29.094,0,0,0-4.164,2.519c-.133.329-.55.41-1.583.61a70.764,70.764,0,0,0-7.1,1.655.75.75,0,1,1-.467-1.426,71.871,71.871,0,0,1,7.281-1.7c.334-.065.6-.116.767-.15a24.11,24.11,0,0,1,4.558-2.829c.383-.2.81-.434.983-.537a26.222,26.222,0,0,0,3.315-5.381.75.75,0,0,1,1.424.419,32.827,32.827,0,0,1-1.481,6.126c-1.024,3.832-5.786,5.212-6.7,5.442C1082.744,363.724,1077.872,364.168,1075.817,364.168Z"/><path d="M1085.01,360.914a.751.751,0,0,1-.75-.724,2.02,2.02,0,0,0-.344-1.187.77.77,0,0,1-.918-.56.734.734,0,0,1,.545-.893,1.506,1.506,0,0,1,1.293.268,3.328,3.328,0,0,1,.924,2.323.75.75,0,0,1-.724.772Z"/><path d="M1091.126,356.634a.738.738,0,0,1-.392-.111q-.907-.558-1.767-1.117a.75.75,0,1,1,.816-1.258q.846.549,1.737,1.1a.75.75,0,0,1-.394,1.388Z"/><path d="M1069.615,408.335a9.742,9.742,0,0,1-4.628-1.258c-9.814-5.271-5.4-19.138-5.358-19.277a.747.747,0,0,1,.421-.457c.924-.392,4.048-1.638,5.392-1.217,1.426.442,1.046,2.455.47,5.5-.807,4.274-1.912,10.129,2.067,11.473,5.881,1.99,10.41-9.062,11.107-10.87a7.1,7.1,0,0,1,.082-5.1c.637-1.281-.04-1.762-.264-1.879a.757.757,0,0,1-.384-.85.783.783,0,0,1,.728-.57,5.4,5.4,0,0,1,3.908,1.572,6.437,6.437,0,0,1,1.69,4.647,4.117,4.117,0,0,1-2.193,3.93c-.8,3.551-3.925,10.931-9.309,13.489A8.62,8.62,0,0,1,1069.615,408.335Zm-8.656-19.745c-.565,2.017-3.186,12.909,4.737,17.165a7.419,7.419,0,0,0,7,.355c4.572-2.172,7.811-8.919,8.56-12.795a.75.75,0,0,1,.45-.55,2.657,2.657,0,0,0,1.638-2.669,5.1,5.1,0,0,0-1.264-3.648,3.554,3.554,0,0,0-1.2-.808,3.311,3.311,0,0,1-.372,2.155c-.867,1.745.058,4.137.068,4.161a.75.75,0,0,1,.011.534c-.215.6-5.343,14.642-13.092,12.032-5.216-1.762-3.919-8.628-3.061-13.172a14.989,14.989,0,0,0,.459-3.813A12.448,12.448,0,0,0,1060.959,388.59Z"/><path d="M1078.5,402.372a.764.764,0,0,1-.268-.049c-2.759-1.052-2.9-2.517-2.9-2.8a.75.75,0,0,1,1.5-.045c.015.069.215.789,1.936,1.444a.75.75,0,0,1-.268,1.451Zm-1.667-2.85h0Z"/><path d="M1068.474,408a.5.5,0,0,1-.457-.3,5.41,5.41,0,0,1-.2-3.886.5.5,0,0,1,.951.309,4.407,4.407,0,0,0,.167,3.169.5.5,0,0,1-.253.661A.512.512,0,0,1,1068.474,408Z"/><path d="M1060.755,402.469a.77.77,0,0,1-.135-.012.751.751,0,0,1-.6-.872c.444-2.447,3.76-3.147,3.9-3.177a.75.75,0,0,1,.3,1.47c-.684.143-2.507.773-2.725,1.975A.751.751,0,0,1,1060.755,402.469Z"/><path d="M1081.994,394.209a.749.749,0,0,1-.266-.049,8.268,8.268,0,0,1-2.318-1.342.75.75,0,0,1,.951-1.16,6.8,6.8,0,0,0,1.9,1.1.75.75,0,0,1-.267,1.451Z"/><path d="M1062.621,390.122a3.427,3.427,0,0,1-.829-.1c-3.146-.789-4.709-4.531-4.778-11.438-.057-5.772,1.189-11.866,3.921-19.18l.126-.339c2-5.364,4.073-10.91,7.24-15.523.795-1.16,3.207-4.69,6.128-3.959,4.556,1.147,5.212,9.812,2.062,27.269h0c-2.128,11.788-7.243,19.835-11.095,22.323A5.177,5.177,0,0,1,1062.621,390.122Zm11-49.139c-1.176,0-2.518,1.121-4.086,3.407-3.062,4.462-5.1,9.92-7.071,15.2l-.127.34c-2.664,7.135-3.88,13.058-3.825,18.64.06,6.043,1.286,9.407,3.643,10a3.326,3.326,0,0,0,2.425-.651c3.7-2.392,8.476-10.486,10.433-21.33,3.8-21.063,1.035-25.047-.952-25.547A1.811,1.811,0,0,0,1073.623,340.983Zm2.13,25.734h0Z"/><path d="M1073.411,356.688c-7.206,0-9.32-3.75-9.419-3.934a.75.75,0,0,1,1.318-.717c.1.179,2.509,4.255,11.629,2.867a.75.75,0,1,1,.225,1.483A25.011,25.011,0,0,1,1073.411,356.688Z"/><path d="M1069.744,375.149c-7.59,0-11.351-4.438-11.533-4.659a.749.749,0,1,1,1.156-.954c.208.248,4.858,5.636,14.415,3.69a.75.75,0,1,1,.3,1.469A21.724,21.724,0,0,1,1069.744,375.149Z"/><path d="M1032.24,362.951l.6,1.862h1.958l-1.584,1.151.6,1.862-1.584-1.151-1.584,1.151.6-1.862-1.584-1.151h1.958Z"/><path d="M1044.532,391.35,1045,392.8h1.526l-1.234.9.471,1.451-1.234-.9-1.235.9.469-1.451-1.234-.9h1.526Z"/><path d="M1104.539,362.951l-.6,1.862h-1.958l1.584,1.151-.6,1.862,1.584-1.151,1.584,1.151-.6-1.862,1.584-1.151h-1.969Z"/><path d="M1092.247,391.35l-.472,1.451h-1.526l1.234.9-.472,1.451,1.234-.9,1.234.9-.471-1.451,1.234-.9h-1.526Z"/></g></svg>