<svg xmlns="http://www.w3.org/2000/svg" width="68.989" height="68.404" viewBox="0 0 68.989 68.404"><g transform="translate(-744.802 -172.124)"><path d="M779.307,237.625c-.11,0-.218,0-.328,0a16.415,16.415,0,0,1-15.008-11.1l-.005-.015-4.882-15.477a14.427,14.427,0,0,1-1.41-6.175c0-9.574,9.7-17.362,21.623-17.362s21.623,7.788,21.623,17.36a14.432,14.432,0,0,1-1.409,6.177l-4.875,15.527A16.1,16.1,0,0,1,779.307,237.625Zm-13.913-11.572a14.906,14.906,0,0,0,13.623,10.069c.1,0,.2,0,.295,0a14.6,14.6,0,0,0,13.9-10.025l4.888-15.566a.6.6,0,0,1,.041-.1,12.932,12.932,0,0,0,1.283-5.575c0-8.744-9.027-15.859-20.123-15.859s-20.123,7.115-20.123,15.86a12.939,12.939,0,0,0,1.284,5.574.684.684,0,0,1,.04.1Z"/><path d="M779.3,240.528c-5.7,0-10.336-3.185-10.336-7.1a.5.5,0,1,1,1,0c0,3.364,4.188,6.1,9.336,6.1s9.336-2.736,9.336-6.1a.5.5,0,1,1,1,0C789.634,237.343,785,240.528,779.3,240.528Z"/><path d="M805.26,207.559a7,7,0,0,1-5.551-2.22.75.75,0,0,1,1.139-.977c2.718,3.172,8.77,1.1,11.008.177a23.951,23.951,0,0,0-6.328-5.471,6.558,6.558,0,0,0-6.5.007.75.75,0,0,1-.746-1.3,8.068,8.068,0,0,1,8,0,25.475,25.475,0,0,1,7.355,6.612.758.758,0,0,1,.13.625.75.75,0,0,1-.4.5A21.082,21.082,0,0,1,805.26,207.559Z"/><path d="M813.042,205.587a.841.841,0,0,1-.132-.011c-.088-.016-2.2-.411-6.572-2.993-3.978-2.35-6.853-1.944-6.885-1.941a.75.75,0,0,1-.238-1.481c.133-.023,3.4-.521,7.887,2.131,4.085,2.414,6.054,2.8,6.074,2.808a.75.75,0,0,1-.134,1.487Z"/><path d="M753.334,207.559a21.082,21.082,0,0,1-8.112-2.05.749.749,0,0,1-.269-1.123,25.488,25.488,0,0,1,7.343-6.606,8.075,8.075,0,0,1,8.015-.006.75.75,0,0,1-.747,1.3,6.566,6.566,0,0,0-6.51,0,23.966,23.966,0,0,0-6.317,5.464c2.24.92,8.289,2.994,11.01-.177a.75.75,0,1,1,1.139.977A7,7,0,0,1,753.334,207.559Z"/><path d="M745.561,205.587a.75.75,0,0,1-.13-1.488c.015,0,1.984-.393,6.069-2.807,4.489-2.652,7.753-2.154,7.887-2.131a.75.75,0,0,1-.24,1.481c-.052-.007-2.919-.4-6.883,1.941-4.37,2.582-6.484,2.977-6.572,2.993A.839.839,0,0,1,745.561,205.587Z"/><path d="M808.389,182.206a.75.75,0,0,1-.4-.119,6.437,6.437,0,0,0-5.316-.748.75.75,0,1,1-.428-1.437,7.94,7.94,0,0,1,6.553.922.75.75,0,0,1-.405,1.382Z"/><path d="M809.518,193.672a.749.749,0,0,1-.718-.532c-1.112-3.663-6.688-7.207-6.744-7.243a.75.75,0,1,1,.8-1.27c.249.157,6.107,3.877,7.381,8.078a.749.749,0,0,1-.5.935A.74.74,0,0,1,809.518,193.672Z"/><path d="M803.481,198.215a.744.744,0,0,1-.548-.239l-7.285-7.827a29.726,29.726,0,0,1-6.163.987.721.721,0,0,1-.776-.722.749.749,0,0,1,.722-.777c.078,0,7.848-.329,11.54-3.8,2.852-2.685-.907-9.832-2.6-12.359a.75.75,0,0,1,.888-1.119c3.054,1.152,6.039,3.657,8.87,7.448,2.591,3.47,3.836,6.494,3.807,9.245-.041,3.884-4,6.43-6.891,8.289-.4.26-.792.51-1.151.75A.746.746,0,0,1,803.481,198.215Zm-6.247-8.563,6.365,6.838c.207-.135.421-.273.64-.414,2.749-1.767,6.17-3.967,6.2-7.042.026-2.41-1.123-5.136-3.508-8.333a22.928,22.928,0,0,0-6-5.84c1.731,3.223,4.2,9.113,1.061,12.065A13.578,13.578,0,0,1,797.234,189.652Z"/><path d="M750.207,182.206a.75.75,0,0,1-.4-1.382,7.938,7.938,0,0,1,6.553-.922.75.75,0,1,1-.427,1.437,6.442,6.442,0,0,0-5.318.748A.747.747,0,0,1,750.207,182.206Z"/><path d="M749.079,193.672a.749.749,0,0,1-.718-.967c1.274-4.2,7.132-7.921,7.38-8.078a.75.75,0,0,1,.8,1.27c-.057.036-5.633,3.58-6.743,7.243A.751.751,0,0,1,749.079,193.672Z"/><path d="M755.113,198.215a.748.748,0,0,1-.418-.127c-.358-.24-.746-.49-1.15-.75-2.892-1.859-6.851-4.4-6.892-8.289-.029-2.752,1.216-5.776,3.808-9.245,2.831-3.791,5.815-6.3,8.869-7.448a.75.75,0,0,1,.888,1.119c-1.689,2.527-5.447,9.674-2.594,12.359,3.69,3.474,11.461,3.8,11.539,3.8a.75.75,0,0,1,.722.777.717.717,0,0,1-.777.722,29.745,29.745,0,0,1-6.163-.987l-7.283,7.827A.746.746,0,0,1,755.113,198.215Zm2.544-23.354a22.958,22.958,0,0,0-5.995,5.84c-2.387,3.2-3.535,5.922-3.509,8.333.033,3.075,3.453,5.275,6.2,7.042q.33.211.641.414l6.363-6.838a13.576,13.576,0,0,1-4.762-2.726C753.459,183.975,755.926,178.084,757.657,174.861Z"/><path d="M790.773,232.2a.5.5,0,0,1-.415-.22l-4-5.941a3.953,3.953,0,0,0-3.614-1.816,3.842,3.842,0,0,0-1.9.708,2.608,2.608,0,0,1-3.046,0,3.849,3.849,0,0,0-1.911-.709,4.006,4.006,0,0,0-3.6,1.809l-4.005,5.949a.5.5,0,0,1-.83-.559l4-5.941a4.976,4.976,0,0,1,4.511-2.255,4.865,4.865,0,0,1,2.419.893,1.606,1.606,0,0,0,1.879,0,4.86,4.86,0,0,1,2.41-.893,5,5,0,0,1,4.525,2.261l3.995,5.934a.5.5,0,0,1-.415.779Z"/><path d="M776.7,231.48a4.552,4.552,0,0,1-2.251-.77c-.489-.312-1.3-.946-1.263-1.691a1.026,1.026,0,0,1,.633-.876c1.861-.926,3.626,2.138,3.823,2.491a.506.506,0,0,1,.042.385.5.5,0,0,1-.246.3A1.56,1.56,0,0,1,776.7,231.48Zm-2.17-2.5a.577.577,0,0,0-.263.061.267.267,0,0,0-.092.062,2.261,2.261,0,0,0,.974.865,4.052,4.052,0,0,0,1.182.474C775.822,229.737,775.1,228.977,774.526,228.977Z"/><path d="M781.927,231.48a1.56,1.56,0,0,1-.738-.162.5.5,0,0,1-.246-.3.506.506,0,0,1,.042-.385c.2-.352,1.966-3.417,3.823-2.491a1.028,1.028,0,0,1,.634.876c.039.745-.775,1.379-1.263,1.691A4.552,4.552,0,0,1,781.927,231.48Zm2.17-2.5c-.578,0-1.3.759-1.8,1.462a4.107,4.107,0,0,0,1.183-.473c.7-.4.941-.772.962-.883-.008,0-.033-.021-.081-.045A.577.577,0,0,0,784.1,228.977Z"/><path d="M772.21,226.021a.749.749,0,0,1-.748-.711c-.01-.194-1.12-19.433-12.521-24.729a.75.75,0,0,1,.633-1.361c5.085,2.363,9.013,7.628,11.36,15.227a48.72,48.72,0,0,1,2.026,10.787.752.752,0,0,1-.711.787Z"/><path d="M766.859,209.85a3.211,3.211,0,0,1-2.644-1.074c-1.329-1.639-.343-4.382-.226-4.689a.75.75,0,0,1,1.4.532c-.215.572-.68,2.391-.01,3.214.363.447,1.083.607,2.142.473l11.285-10.213a.748.748,0,0,1,1,0l11.495,10.37a.749.749,0,0,1-1,1.113l-10.992-9.915-10.952,9.912a.748.748,0,0,1-.386.184A7.126,7.126,0,0,1,766.859,209.85Z"/><path d="M786.384,226.021h-.039a.751.751,0,0,1-.711-.787,48.72,48.72,0,0,1,2.026-10.787c2.347-7.6,6.275-12.864,11.36-15.227a.75.75,0,1,1,.632,1.361c-11.411,5.3-12.51,24.535-12.52,24.728A.75.75,0,0,1,786.384,226.021Z"/><path d="M791.727,209.838a7.54,7.54,0,0,1-1.027-.075.751.751,0,0,1,.205-1.487c.827.116,1.912.123,2.386-.485.642-.824.143-2.6-.082-3.155a.75.75,0,0,1,1.389-.566c.123.3,1.164,2.984-.12,4.639A3.274,3.274,0,0,1,791.727,209.838Z"/><path d="M765.64,209.219a1.8,1.8,0,1,1,1.8-1.8A1.8,1.8,0,0,1,765.64,209.219Zm0-2.094a.3.3,0,1,0,.3.3A.3.3,0,0,0,765.64,207.125Z"/><path d="M792.86,209.219a1.8,1.8,0,1,1,1.8-1.8A1.8,1.8,0,0,1,792.86,209.219Zm0-2.094a.3.3,0,1,0,.3.3A.3.3,0,0,0,792.86,207.125Z"/><path d="M779.312,199.4a.75.75,0,0,1-.75-.75v-10.41a.75.75,0,0,1,1.5,0v10.41A.75.75,0,0,1,779.312,199.4Z"/><path d="M750.742,216.419l.6,1.862H753.3l-1.579,1.152.6,1.862-1.584-1.151-1.584,1.151.6-1.862-1.584-1.151h1.958Z"/><path d="M807.857,216.419l.6,1.862h1.958l-1.589,1.152.6,1.862-1.579-1.152-1.584,1.151.6-1.862-1.584-1.151h1.958Z"/><path d="M779.3,172.124l.469,1.447h1.526l-1.235.9.472,1.451-1.234-.9-1.234.9.471-1.451-1.234-.9h1.526Z"/></g></svg>