<svg xmlns="http://www.w3.org/2000/svg" width="76.829" height="92.766" viewBox="0 0 76.829 92.766"><g transform="translate(-735.892 -326.122)"><path d="M785.878,398.644a6.52,6.52,0,0,1-2.994-.729c-3.832-1.88-10.463-5.567-11.666-9.059-1.316-3.831-.709-10.659-.5-12.593a5.918,5.918,0,0,1-1.6-2.54,6.569,6.569,0,0,1,.854-6.587,3.554,3.554,0,0,1,2.921-1.431,4.2,4.2,0,0,1,2.427,1.082c.877-3.67,4.11-13.03,14.529-15.221,11.924-2.506,14.125-16.881,14.146-17.026a.75.75,0,1,1,1.484.212,27.962,27.962,0,0,1-2.719,8.073,19.551,19.551,0,0,1-8.288,8.679,27.29,27.29,0,0,1-.043,10.352c-.969,4.409-.832,7.553.414,9.63a12.77,12.77,0,0,0,1.526,1.933,5.451,5.451,0,0,1,1.753,2.962c.127,1.51-1.2,2.81-3.414,3.4a5.05,5.05,0,0,0,.376,2.026,3.294,3.294,0,0,1-.731,3.227,3.827,3.827,0,0,1,.547,2.625,2.1,2.1,0,0,1-1.208,1.4c-.55.257-.985.419-1.324.544a3.352,3.352,0,0,0-.574.245h0a3.556,3.556,0,0,0-.021.374l.007.3c.046,1.634.186,6.606-4.164,7.886A6.668,6.668,0,0,1,785.878,398.644ZM772.73,367.2a2.2,2.2,0,0,0-1.626.918,4.846,4.846,0,0,0-.826,4.215,4.99,4.99,0,0,0,1.412,2.783.71.71,0,0,1,.574.821c-.011.083-1.026,8.361.372,12.431.74,2.145,4.823,5.213,10.922,8.207a5.05,5.05,0,0,0,3.651.392c2.89-.851,3.139-4.06,3.072-6.4l-.007-.345c0-1.372.6-1.663,1.573-2.025.31-.115.707-.261,1.209-.5a.606.606,0,0,0,.39-.409,3.155,3.155,0,0,0-.677-1.962.749.749,0,0,1,.188-1.065,1.76,1.76,0,0,0,.713-1.961,6.429,6.429,0,0,1-.412-3.218.75.75,0,0,1,.6-.642c1.7-.342,2.84-1.139,2.774-1.938a4.55,4.55,0,0,0-1.374-2.083,14.176,14.176,0,0,1-1.7-2.166c-1.453-2.42-1.648-5.922-.6-10.706a25.762,25.762,0,0,0,.1-9.4,17.157,17.157,0,0,1-2.907.883c-11.908,2.5-13.575,14.893-13.64,15.419a.751.751,0,0,1-1.359.339,3.786,3.786,0,0,0-2.349-1.589Z"/><path d="M792.126,379.521a.747.747,0,0,1-.406-.12c-1.246-.806-.919-2.573-.878-2.772a.75.75,0,0,1,1.47.3c-.059.3-.084,1.011.222,1.21a.749.749,0,0,1-.408,1.379Z"/><path d="M792.722,389.366c-2.182,0-4.7-3.7-5.2-4.466a.749.749,0,0,1,.439-1.134,14.593,14.593,0,0,0,4.147-1.808,2.42,2.42,0,0,1,2.209-.566,1.518,1.518,0,0,1,.927,1.012.75.75,0,0,1-1.444.406c-.017-.013-.258-.036-.853.39a16.174,16.174,0,0,1-3.588,1.715c1.2,1.617,2.7,3.059,3.415,2.948a.751.751,0,0,1,.207,1.487A1.964,1.964,0,0,1,792.722,389.366Z"/><path d="M791.385,385.742a8.821,8.821,0,0,1-3.569-.581.75.75,0,0,1,.663-1.346c1.171.577,3.873.432,4.813.328a.75.75,0,0,1,.166,1.491A20.186,20.186,0,0,1,791.385,385.742Z"/><path d="M793.931,361.155a.749.749,0,0,1-.323-.073c-1.879-.9-3.714-1.687-5.555-1.53a13.493,13.493,0,0,0-4.074,1.186.75.75,0,1,1-.639-1.357,15.013,15.013,0,0,1,4.555-1.32c2.247-.2,4.286.677,6.36,1.668a.75.75,0,0,1-.324,1.426Z"/><path d="M790.281,367.8c-1.572,0-4.769-1.5-5.425-1.819a.75.75,0,0,1,.029-1.364,23.3,23.3,0,0,1,6.863-1.794.75.75,0,1,1,.154,1.492q-.459.048-.915.114l.193,2.556a.751.751,0,0,1-.656.8A2.052,2.052,0,0,1,790.281,367.8Zm-3.144-2.444a17.883,17.883,0,0,0,2.48.858L789.5,364.7A21.6,21.6,0,0,0,787.137,365.358Z"/><path d="M804.741,410.909a.767.767,0,0,1-.287-.056c-9.291-3.849-18.068-12.059-18.437-12.407a.75.75,0,0,1,1.028-1.092c.089.084,8.951,8.372,17.983,12.112a.75.75,0,0,1-.287,1.443Z"/><path d="M778.925,418.888a.745.745,0,0,1-.541-.231c-10.693-11.137-14.149-24.617-9.733-37.955a23.936,23.936,0,0,1,2.222-5.23.75.75,0,1,1,1.3.745,22.536,22.536,0,0,0-2.09,4.929c-4.242,12.812-.906,25.755,9.382,36.472a.751.751,0,0,1-.541,1.27Z"/><path d="M772.238,373.158a.746.746,0,0,1-.555-.246,2.926,2.926,0,0,1,0-3.944,1.713,1.713,0,0,1,1.506-.7,1.662,1.662,0,0,1,1.185.854.749.749,0,0,1-1.319.712.376.376,0,0,0-.055-.066c-.016.024-.091.077-.2.2a1.435,1.435,0,0,0-.007,1.937.749.749,0,0,1-.556,1.253Z"/><path d="M804.741,354.39l.6,1.862H807.3L805.72,357.4l.6,1.862-1.584-1.151-1.584,1.151.605-1.862-1.584-1.151h1.958Z"/><path d="M804.741,389.082l.6,1.862H807.3L805.72,392.1l.6,1.862-1.584-1.151-1.584,1.151.605-1.862-1.584-1.151h1.958Z"/><path d="M810.724,371.608l.471,1.451h1.526l-1.234.9.472,1.451-1.234-.9-1.234.9.471-1.451-1.234-.9h1.526Z"/><path d="M789.015,367.582a.752.752,0,0,1-.572-.264,3.515,3.515,0,0,1-.65-3.386.75.75,0,0,1,1.422.479,2.006,2.006,0,0,0,.371,1.934.75.75,0,0,1-.571,1.237Z"/><path d="M737.366,392.268a.75.75,0,0,1-.726-.567c-.169-.673-4.021-16.712,7.557-37.677,11.592-20.99,38.657-27.815,38.93-27.881a.75.75,0,1,1,.355,1.457c-.265.065-26.7,6.743-37.972,27.15s-7.455,36.426-7.415,36.585a.752.752,0,0,1-.545.91A.778.778,0,0,1,737.366,392.268Z"/><path d="M758.848,414.259a.751.751,0,0,1-.741-.637c-2.078-13.64-1.842-46.008,12.148-59a58.468,58.468,0,0,1,32.651-14.808.751.751,0,0,1,.174,1.491,56.956,56.956,0,0,0-31.811,14.423C757.726,368.3,757.552,400.012,759.59,413.4a.749.749,0,0,1-.628.854A.738.738,0,0,1,758.848,414.259Z"/><path d="M746.475,405.383a.75.75,0,0,1-.744-.66,76.361,76.361,0,0,1,7.6-43.566c11.215-22.389,41.774-31.965,42.082-32.059a.75.75,0,0,1,.439,1.435c-.3.092-30.255,9.487-41.18,31.3a74.857,74.857,0,0,0-7.456,42.713.749.749,0,0,1-.655.834A.681.681,0,0,1,746.475,405.383Z"/><path d="M791.821,417.043a.744.744,0,0,1-.422-.131c-9.8-6.687-15.924-23-16.18-23.687a.75.75,0,1,1,1.406-.522c.062.165,6.22,16.554,15.62,22.971a.75.75,0,0,1-.424,1.369Z"/></g></svg>